<svg width="392" height="233" viewBox="0 0 392 233" fill="none" xmlns="http://www.w3.org/2000/svg">
<g clip-path="url(#clip0_13_737)">
<rect width="392" height="232.074" rx="12" fill="white"/>
<g filter="url(#filter0_d_13_737)">
<rect x="0.5" y="0.5" width="324.874" height="191.926" rx="11.5" fill="white" stroke="#F2F4F8"/>
<path d="M21.4296 32.1519H19.4608L23.0454 21.97H25.3223L28.9118 32.1519H26.9431L24.2236 24.0581H24.1441L21.4296 32.1519ZM21.4942 28.1597H26.8635V29.6412H21.4942V28.1597ZM35.0406 28.9402V24.5155H36.8403V32.1519H35.0952V30.7946H35.0157C34.8434 31.2222 34.56 31.5718 34.1656 31.8436C33.7745 32.1154 33.2922 32.2513 32.7188 32.2513C32.2184 32.2513 31.7759 32.1403 31.3914 31.9182C31.0103 31.6928 30.712 31.3663 30.4965 30.9388C30.2811 30.5079 30.1734 29.9876 30.1734 29.3777V24.5155H31.9731V29.0993C31.9731 29.5832 32.1057 29.9677 32.3708 30.2527C32.636 30.5377 32.984 30.6803 33.4149 30.6803C33.68 30.6803 33.9369 30.6156 34.1854 30.4864C34.434 30.3571 34.6379 30.1649 34.797 29.9097C34.9594 29.6511 35.0406 29.328 35.0406 28.9402ZM42.5042 24.5155V25.9075H38.1142V24.5155H42.5042ZM39.1981 22.6859H40.9978V29.855C40.9978 30.0969 41.0342 30.2825 41.1071 30.4118C41.1834 30.5377 41.2828 30.6239 41.4054 30.6703C41.5281 30.7167 41.664 30.7399 41.8131 30.7399C41.9258 30.7399 42.0285 30.7316 42.1213 30.7151C42.2175 30.6985 42.2904 30.6836 42.3401 30.6703L42.6434 32.0773C42.5472 32.1104 42.4097 32.1469 42.2307 32.1867C42.0551 32.2264 41.8396 32.2496 41.5844 32.2563C41.1337 32.2695 40.7276 32.2016 40.3664 32.0524C40.0051 31.9 39.7184 31.6646 39.5063 31.3465C39.2975 31.0283 39.1947 30.6305 39.1981 30.1533V22.6859ZM45.9731 27.6774V32.1519H44.1734V21.97H45.9333V25.8131H46.0228C46.2018 25.3822 46.4785 25.0425 46.8531 24.7939C47.2309 24.542 47.7115 24.4161 48.2948 24.4161C48.8251 24.4161 49.2875 24.5271 49.6819 24.7492C50.0763 24.9712 50.3812 25.296 50.5967 25.7236C50.8154 26.1511 50.9248 26.6732 50.9248 27.2896V32.1519H49.1251V27.568C49.1251 27.0543 48.9925 26.6549 48.7274 26.3699C48.4655 26.0815 48.0976 25.9374 47.6237 25.9374C47.3055 25.9374 47.0204 26.007 46.7685 26.1462C46.52 26.2821 46.3244 26.4793 46.1819 26.7378C46.0427 26.9963 45.9731 27.3095 45.9731 27.6774ZM56.0903 32.301C55.3445 32.301 54.6982 32.1369 54.1514 31.8088C53.6045 31.4807 53.1802 31.0216 52.8786 30.4317C52.5803 29.8417 52.4312 29.1523 52.4312 28.3635C52.4312 27.5747 52.5803 26.8836 52.8786 26.2903C53.1802 25.6971 53.6045 25.2364 54.1514 24.9082C54.6982 24.5801 55.3445 24.4161 56.0903 24.4161C56.836 24.4161 57.4823 24.5801 58.0292 24.9082C58.5761 25.2364 58.9987 25.6971 59.297 26.2903C59.5986 26.8836 59.7494 27.5747 59.7494 28.3635C59.7494 29.1523 59.5986 29.8417 59.297 30.4317C58.9987 31.0216 58.5761 31.4807 58.0292 31.8088C57.4823 32.1369 56.836 32.301 56.0903 32.301ZM56.1002 30.8592C56.5046 30.8592 56.8426 30.7482 57.1144 30.5261C57.3862 30.3008 57.5884 29.9992 57.721 29.6213C57.8568 29.2435 57.9248 28.8225 57.9248 28.3585C57.9248 27.8912 57.8568 27.4686 57.721 27.0908C57.5884 26.7096 57.3862 26.4064 57.1144 26.181C56.8426 25.9556 56.5046 25.8429 56.1002 25.8429C55.6859 25.8429 55.3412 25.9556 55.0661 26.181C54.7943 26.4064 54.5905 26.7096 54.4546 27.0908C54.322 27.4686 54.2558 27.8912 54.2558 28.3585C54.2558 28.8225 54.322 29.2435 54.4546 29.6213C54.5905 29.9992 54.7943 30.3008 55.0661 30.5261C55.3412 30.7482 55.6859 30.8592 56.1002 30.8592ZM61.2769 32.1519V24.5155H63.0219V25.7882H63.1015C63.2407 25.3474 63.4793 25.0077 63.8174 24.769C64.1588 24.5271 64.5482 24.4061 64.9857 24.4061C65.0851 24.4061 65.1962 24.4111 65.3188 24.421C65.4447 24.4277 65.5491 24.4393 65.632 24.4558V26.1114C65.5558 26.0849 65.4348 26.0617 65.2691 26.0418C65.1067 26.0186 64.9492 26.007 64.7968 26.007C64.4687 26.007 64.1737 26.0782 63.9118 26.2207C63.6533 26.36 63.4495 26.5538 63.3003 26.8024C63.1512 27.051 63.0766 27.3377 63.0766 27.6625V32.1519H61.2769ZM66.8277 32.1519V24.5155H68.6274V32.1519H66.8277ZM67.7325 23.4317C67.4475 23.4317 67.2022 23.3372 66.9967 23.1483C66.7912 22.9561 66.6885 22.7257 66.6885 22.4573C66.6885 22.1855 66.7912 21.9551 66.9967 21.7662C67.2022 21.574 67.4475 21.4778 67.7325 21.4778C68.0209 21.4778 68.2661 21.574 68.4683 21.7662C68.6738 21.9551 68.7765 22.1855 68.7765 22.4573C68.7765 22.7257 68.6738 22.9561 68.4683 23.1483C68.2661 23.3372 68.0209 23.4317 67.7325 23.4317ZM70.3786 32.1519V31.0084L74.3161 26.0716V26.007H70.5079V24.5155H76.5185V25.7435L72.77 30.5957V30.6604H76.6478V32.1519H70.3786ZM80.5368 32.306C80.0529 32.306 79.6171 32.2198 79.2293 32.0475C78.8448 31.8718 78.5399 31.6133 78.3145 31.2719C78.0925 30.9305 77.9814 30.5096 77.9814 30.0091C77.9814 29.5782 78.061 29.2219 78.2201 28.9402C78.3792 28.6585 78.5963 28.4331 78.8713 28.2641C79.1464 28.095 79.4563 27.9674 79.801 27.8813C80.149 27.7918 80.5087 27.7271 80.8799 27.6874C81.3273 27.641 81.6902 27.5995 81.9687 27.5631C82.2471 27.5233 82.4492 27.4636 82.5752 27.3841C82.7044 27.3012 82.7691 27.1736 82.7691 27.0013V26.9715C82.7691 26.5969 82.658 26.3069 82.436 26.1014C82.2139 25.8959 81.8941 25.7932 81.4765 25.7932C81.0356 25.7932 80.686 25.8893 80.4275 26.0815C80.1722 26.2738 79.9999 26.5008 79.9104 26.7627L78.23 26.524C78.3626 26.06 78.5813 25.6722 78.8863 25.3607C79.1912 25.0458 79.5641 24.8105 80.0049 24.6547C80.4457 24.4956 80.9329 24.4161 81.4665 24.4161C81.8344 24.4161 82.2007 24.4591 82.5652 24.5453C82.9298 24.6315 83.2629 24.774 83.5645 24.9729C83.8661 25.1684 84.1081 25.4352 84.2904 25.7733C84.476 26.1114 84.5688 26.534 84.5688 27.0411V32.1519H82.8387V31.1028H82.779C82.6696 31.315 82.5155 31.5138 82.3167 31.6994C82.1211 31.8817 81.8742 32.0292 81.5759 32.1419C81.2809 32.2513 80.9346 32.306 80.5368 32.306ZM81.0042 30.9835C81.3654 30.9835 81.6786 30.9123 81.9438 30.7698C82.2089 30.6239 82.4128 30.4317 82.5553 30.193C82.7011 29.9544 82.774 29.6942 82.774 29.4125V28.5127C82.7177 28.5591 82.6216 28.6021 82.4857 28.6419C82.3531 28.6817 82.204 28.7165 82.0383 28.7463C81.8725 28.7761 81.7085 28.8027 81.5461 28.8259C81.3837 28.8491 81.2428 28.8689 81.1235 28.8855C80.855 28.922 80.6147 28.9816 80.4026 29.0645C80.1905 29.1474 80.0231 29.2634 79.9005 29.4125C79.7778 29.5583 79.7165 29.7473 79.7165 29.9793C79.7165 30.3107 79.8375 30.5609 80.0794 30.73C80.3214 30.899 80.6296 30.9835 81.0042 30.9835ZM90.1917 24.5155V25.9075H85.8017V24.5155H90.1917ZM86.8856 22.6859H88.6853V29.855C88.6853 30.0969 88.7217 30.2825 88.7946 30.4118C88.8709 30.5377 88.9703 30.6239 89.0929 30.6703C89.2156 30.7167 89.3515 30.7399 89.5006 30.7399C89.6133 30.7399 89.716 30.7316 89.8088 30.7151C89.905 30.6985 89.9779 30.6836 90.0276 30.6703L90.3309 32.0773C90.2347 32.1104 90.0972 32.1469 89.9182 32.1867C89.7426 32.2264 89.5271 32.2496 89.2719 32.2563C88.8212 32.2695 88.4151 32.2016 88.0539 32.0524C87.6926 31.9 87.4059 31.6646 87.1938 31.3465C86.985 31.0283 86.8822 30.6305 86.8856 30.1533V22.6859ZM91.6968 32.1519V24.5155H93.4965V32.1519H91.6968ZM92.6016 23.4317C92.3166 23.4317 92.0713 23.3372 91.8658 23.1483C91.6604 22.9561 91.5576 22.7257 91.5576 22.4573C91.5576 22.1855 91.6604 21.9551 91.8658 21.7662C92.0713 21.574 92.3166 21.4778 92.6016 21.4778C92.89 21.4778 93.1353 21.574 93.3374 21.7662C93.5429 21.9551 93.6457 22.1855 93.6457 22.4573C93.6457 22.7257 93.5429 22.9561 93.3374 23.1483C93.1353 23.3372 92.89 23.4317 92.6016 23.4317ZM98.6782 32.301C97.9324 32.301 97.2861 32.1369 96.7392 31.8088C96.1924 31.4807 95.7681 31.0216 95.4665 30.4317C95.1682 29.8417 95.0191 29.1523 95.0191 28.3635C95.0191 27.5747 95.1682 26.8836 95.4665 26.2903C95.7681 25.6971 96.1924 25.2364 96.7392 24.9082C97.2861 24.5801 97.9324 24.4161 98.6782 24.4161C99.4239 24.4161 100.07 24.5801 100.617 24.9082C101.164 25.2364 101.587 25.6971 101.885 26.2903C102.186 26.8836 102.337 27.5747 102.337 28.3635C102.337 29.1523 102.186 29.8417 101.885 30.4317C101.587 31.0216 101.164 31.4807 100.617 31.8088C100.07 32.1369 99.4239 32.301 98.6782 32.301ZM98.6881 30.8592C99.0925 30.8592 99.4305 30.7482 99.7023 30.5261C99.9741 30.3008 100.176 29.9992 100.309 29.6213C100.445 29.2435 100.513 28.8225 100.513 28.3585C100.513 27.8912 100.445 27.4686 100.309 27.0908C100.176 26.7096 99.9741 26.4064 99.7023 26.181C99.4305 25.9556 99.0925 25.8429 98.6881 25.8429C98.2738 25.8429 97.9291 25.9556 97.654 26.181C97.3822 26.4064 97.1784 26.7096 97.0425 27.0908C96.9099 27.4686 96.8437 27.8912 96.8437 28.3585C96.8437 28.8225 96.9099 29.2435 97.0425 29.6213C97.1784 29.9992 97.3822 30.3008 97.654 30.5261C97.9291 30.7482 98.2738 30.8592 98.6881 30.8592ZM105.664 27.6774V32.1519H103.865V24.5155H105.585V25.8131H105.674C105.85 25.3855 106.13 25.0458 106.515 24.7939C106.902 24.542 107.381 24.4161 107.951 24.4161C108.478 24.4161 108.937 24.5287 109.329 24.7541C109.723 24.9795 110.028 25.306 110.243 25.7335C110.462 26.1611 110.57 26.6798 110.566 27.2896V32.1519H108.767V27.568C108.767 27.0576 108.634 26.6582 108.369 26.3699C108.107 26.0815 107.744 25.9374 107.28 25.9374C106.965 25.9374 106.685 26.007 106.44 26.1462C106.198 26.2821 106.008 26.4793 105.868 26.7378C105.732 26.9963 105.664 27.3095 105.664 27.6774ZM115.948 32.1519V21.97H119.766C120.549 21.97 121.205 22.1059 121.735 22.3777C122.269 22.6495 122.671 23.0306 122.943 23.5212C123.218 24.0084 123.356 24.5768 123.356 25.2264C123.356 25.8794 123.217 26.4461 122.938 26.9267C122.663 27.404 122.257 27.7735 121.72 28.0354C121.183 28.2939 120.524 28.4232 119.742 28.4232H117.022V26.8919H119.493C119.95 26.8919 120.325 26.8289 120.617 26.703C120.908 26.5737 121.124 26.3865 121.263 26.1412C121.405 25.8926 121.477 25.5877 121.477 25.2264C121.477 24.8652 121.405 24.5569 121.263 24.3017C121.12 24.0432 120.903 23.8476 120.612 23.7151C120.32 23.5792 119.944 23.5112 119.483 23.5112H117.793V32.1519H115.948ZM121.208 27.5382L123.729 32.1519H121.671L119.195 27.5382H121.208ZM127.172 32.306C126.688 32.306 126.252 32.2198 125.864 32.0475C125.48 31.8718 125.175 31.6133 124.949 31.2719C124.727 30.9305 124.616 30.5096 124.616 30.0091C124.616 29.5782 124.696 29.2219 124.855 28.9402C125.014 28.6585 125.231 28.4331 125.506 28.2641C125.781 28.095 126.091 27.9674 126.436 27.8813C126.784 27.7918 127.143 27.7271 127.515 27.6874C127.962 27.641 128.325 27.5995 128.603 27.5631C128.882 27.5233 129.084 27.4636 129.21 27.3841C129.339 27.3012 129.404 27.1736 129.404 27.0013V26.9715C129.404 26.5969 129.293 26.3069 129.071 26.1014C128.849 25.8959 128.529 25.7932 128.111 25.7932C127.67 25.7932 127.321 25.8893 127.062 26.0815C126.807 26.2738 126.635 26.5008 126.545 26.7627L124.865 26.524C124.997 26.06 125.216 25.6722 125.521 25.3607C125.826 25.0458 126.199 24.8105 126.64 24.6547C127.08 24.4956 127.568 24.4161 128.101 24.4161C128.469 24.4161 128.835 24.4591 129.2 24.5453C129.565 24.6315 129.898 24.774 130.199 24.9729C130.501 25.1684 130.743 25.4352 130.925 25.7733C131.111 26.1114 131.204 26.534 131.204 27.0411V32.1519H129.473V31.1028H129.414C129.304 31.315 129.15 31.5138 128.951 31.6994C128.756 31.8817 128.509 32.0292 128.211 32.1419C127.916 32.2513 127.569 32.306 127.172 32.306ZM127.639 30.9835C128 30.9835 128.313 30.9123 128.579 30.7698C128.844 30.6239 129.048 30.4317 129.19 30.193C129.336 29.9544 129.409 29.6942 129.409 29.4125V28.5127C129.352 28.5591 129.256 28.6021 129.12 28.6419C128.988 28.6817 128.839 28.7165 128.673 28.7463C128.507 28.7761 128.343 28.8027 128.181 28.8259C128.018 28.8491 127.878 28.8689 127.758 28.8855C127.49 28.922 127.249 28.9816 127.037 29.0645C126.825 29.1474 126.658 29.2634 126.535 29.4125C126.413 29.5583 126.351 29.7473 126.351 29.9793C126.351 30.3107 126.472 30.5609 126.714 30.73C126.956 30.899 127.264 30.9835 127.639 30.9835ZM136.826 24.5155V25.9075H132.437V24.5155H136.826ZM133.52 22.6859H135.32V29.855C135.32 30.0969 135.356 30.2825 135.429 30.4118C135.506 30.5377 135.605 30.6239 135.728 30.6703C135.85 30.7167 135.986 30.7399 136.135 30.7399C136.248 30.7399 136.351 30.7316 136.444 30.7151C136.54 30.6985 136.613 30.6836 136.662 30.6703L136.966 32.0773C136.87 32.1104 136.732 32.1469 136.553 32.1867C136.377 32.2264 136.162 32.2496 135.907 32.2563C135.456 32.2695 135.05 32.2016 134.689 32.0524C134.327 31.9 134.041 31.6646 133.829 31.3465C133.62 31.0283 133.517 30.6305 133.52 30.1533V22.6859ZM141.63 32.301C140.865 32.301 140.203 32.1419 139.647 31.8237C139.093 31.5022 138.667 31.0482 138.369 30.4615C138.071 29.8716 137.921 29.1772 137.921 28.3784C137.921 27.5929 138.071 26.9035 138.369 26.3102C138.67 25.7136 139.091 25.2496 139.632 24.9182C140.172 24.5834 140.807 24.4161 141.536 24.4161C142.006 24.4161 142.451 24.4923 142.868 24.6448C143.289 24.7939 143.66 25.0259 143.982 25.3408C144.307 25.6556 144.562 26.0567 144.747 26.5439C144.933 27.0278 145.026 27.6045 145.026 28.274V28.8259H138.767V27.6128H143.301C143.297 27.2681 143.223 26.9615 143.077 26.693C142.931 26.4213 142.727 26.2075 142.465 26.0517C142.207 25.8959 141.905 25.818 141.561 25.818C141.193 25.818 140.87 25.9075 140.591 26.0865C140.313 26.2622 140.096 26.4942 139.94 26.7825C139.787 27.0676 139.71 27.3808 139.706 27.7222V28.7811C139.706 29.2252 139.787 29.6064 139.95 29.9246C140.112 30.2395 140.339 30.4814 140.631 30.6504C140.923 30.8162 141.264 30.899 141.655 30.899C141.917 30.899 142.154 30.8626 142.366 30.7896C142.578 30.7134 142.762 30.6024 142.918 30.4565C143.074 30.3107 143.191 30.1301 143.271 29.9146L144.951 30.1036C144.845 30.5477 144.643 30.9355 144.345 31.2669C144.05 31.595 143.672 31.8502 143.211 32.0325C142.75 32.2115 142.224 32.301 141.63 32.301ZM152.584 26.534L150.943 26.7129C150.897 26.5472 150.816 26.3914 150.7 26.2456C150.587 26.0998 150.435 25.9821 150.242 25.8926C150.05 25.8031 149.815 25.7584 149.536 25.7584C149.162 25.7584 148.847 25.8396 148.592 26.002C148.34 26.1644 148.216 26.3749 148.219 26.6334C148.216 26.8555 148.297 27.0361 148.462 27.1753C148.631 27.3145 148.91 27.4288 149.298 27.5183L150.6 27.7967C151.323 27.9525 151.86 28.1994 152.211 28.5375C152.566 28.8756 152.745 29.318 152.748 29.8649C152.745 30.3455 152.604 30.7698 152.325 31.1377C152.05 31.5022 151.667 31.7873 151.177 31.9928C150.686 32.1983 150.123 32.301 149.487 32.301C148.552 32.301 147.8 32.1055 147.229 31.7144C146.659 31.3199 146.32 30.7714 146.21 30.0688L147.965 29.8997C148.045 30.2444 148.214 30.5046 148.472 30.6803C148.731 30.8559 149.067 30.9438 149.482 30.9438C149.909 30.9438 150.252 30.8559 150.511 30.6803C150.773 30.5046 150.903 30.2875 150.903 30.029C150.903 29.8102 150.819 29.6296 150.65 29.4871C150.484 29.3446 150.226 29.2352 149.874 29.159L148.572 28.8855C147.839 28.7331 147.297 28.4762 146.946 28.1149C146.595 27.7503 146.421 27.2896 146.424 26.7328C146.421 26.2622 146.548 25.8545 146.807 25.5098C147.069 25.1618 147.432 24.8933 147.896 24.7044C148.363 24.5122 148.902 24.4161 149.511 24.4161C150.406 24.4161 151.111 24.6066 151.624 24.9878C152.141 25.3689 152.461 25.8843 152.584 26.534Z" fill="#090F1D"/>
<line opacity="0.7" x1="325.874" y1="58.3358" y2="58.3358" stroke="#F2F4F8" stroke-width="1.0524"/>
</g>
<g filter="url(#filter1_d_13_737)">
<path d="M24.0491 86.1595C24.0491 81.7413 27.6308 78.1595 32.0491 78.1595H365.061C369.48 78.1595 373.061 81.7413 373.061 86.1595V200.115C373.061 204.533 369.48 208.115 365.061 208.115H32.0491C27.6308 208.115 24.0491 204.533 24.0491 200.115V86.1595Z" fill="white"/>
<path d="M24.3903 86.1595C24.3903 81.9297 27.8192 78.5007 32.0491 78.5007H365.061C369.291 78.5007 372.72 81.9297 372.72 86.1595V200.115C372.72 204.345 369.291 207.774 365.061 207.774H32.0491C27.8192 207.774 24.3903 204.345 24.3903 200.115V86.1595Z" stroke="#F2F4F8" stroke-width="0.682402"/>
</g>
<circle cx="49.3006" cy="108.221" r="3.60736" fill="#79BBFA"/>
<path d="M68.1574 106.921H69.3814C69.5614 106.921 69.7114 106.871 69.8314 106.771C69.9514 106.667 70.0114 106.519 70.0114 106.327C70.0114 106.111 69.9574 105.959 69.8494 105.871C69.7414 105.783 69.5854 105.739 69.3814 105.739H68.1574V106.921ZM67.4074 105.127H69.4894C69.8734 105.127 70.1814 105.215 70.4134 105.391C70.6454 105.567 70.7614 105.833 70.7614 106.189C70.7614 106.405 70.7074 106.591 70.5994 106.747C70.4954 106.899 70.3454 107.017 70.1494 107.101V107.113C70.4134 107.169 70.6134 107.295 70.7494 107.491C70.8854 107.683 70.9534 107.925 70.9534 108.217C70.9534 108.385 70.9234 108.543 70.8634 108.691C70.8034 108.835 70.7094 108.961 70.5814 109.069C70.4534 109.173 70.2894 109.257 70.0894 109.321C69.8894 109.381 69.6514 109.411 69.3754 109.411H67.4074V105.127ZM68.1574 108.799H69.4834C69.7114 108.799 69.8874 108.741 70.0114 108.625C70.1394 108.505 70.2034 108.337 70.2034 108.121C70.2034 107.909 70.1394 107.747 70.0114 107.635C69.8874 107.519 69.7114 107.461 69.4834 107.461H68.1574V108.799ZM74.0946 107.587C74.0866 107.479 74.0626 107.375 74.0226 107.275C73.9866 107.175 73.9346 107.089 73.8666 107.017C73.8026 106.941 73.7226 106.881 73.6266 106.837C73.5346 106.789 73.4306 106.765 73.3146 106.765C73.1946 106.765 73.0846 106.787 72.9846 106.831C72.8886 106.871 72.8046 106.929 72.7326 107.005C72.6646 107.077 72.6086 107.163 72.5646 107.263C72.5246 107.363 72.5026 107.471 72.4986 107.587H74.0946ZM72.4986 108.037C72.4986 108.157 72.5146 108.273 72.5466 108.385C72.5826 108.497 72.6346 108.595 72.7026 108.679C72.7706 108.763 72.8566 108.831 72.9606 108.883C73.0646 108.931 73.1886 108.955 73.3326 108.955C73.5326 108.955 73.6926 108.913 73.8126 108.829C73.9366 108.741 74.0286 108.611 74.0886 108.439H74.7366C74.7006 108.607 74.6386 108.757 74.5506 108.889C74.4626 109.021 74.3566 109.133 74.2326 109.225C74.1086 109.313 73.9686 109.379 73.8126 109.423C73.6606 109.471 73.5006 109.495 73.3326 109.495C73.0886 109.495 72.8726 109.455 72.6846 109.375C72.4966 109.295 72.3366 109.183 72.2046 109.039C72.0766 108.895 71.9786 108.723 71.9106 108.523C71.8466 108.323 71.8146 108.103 71.8146 107.863C71.8146 107.643 71.8486 107.435 71.9166 107.239C71.9886 107.039 72.0886 106.865 72.2166 106.717C72.3486 106.565 72.5066 106.445 72.6906 106.357C72.8746 106.269 73.0826 106.225 73.3146 106.225C73.5586 106.225 73.7766 106.277 73.9686 106.381C74.1646 106.481 74.3266 106.615 74.4546 106.783C74.5826 106.951 74.6746 107.145 74.7306 107.365C74.7906 107.581 74.8066 107.805 74.7786 108.037H72.4986ZM75.7271 106.309H76.3751V106.765L76.3871 106.777C76.4911 106.605 76.6271 106.471 76.7951 106.375C76.9631 106.275 77.1491 106.225 77.3531 106.225C77.6931 106.225 77.9611 106.313 78.1571 106.489C78.3531 106.665 78.4511 106.929 78.4511 107.281V109.411H77.7671V107.461C77.7591 107.217 77.7071 107.041 77.6111 106.933C77.5151 106.821 77.3651 106.765 77.1611 106.765C77.0451 106.765 76.9411 106.787 76.8491 106.831C76.7571 106.871 76.6791 106.929 76.6151 107.005C76.5511 107.077 76.5011 107.163 76.4651 107.263C76.4291 107.363 76.4111 107.469 76.4111 107.581V109.411H75.7271V106.309ZM81.695 107.347C81.667 107.155 81.589 107.011 81.461 106.915C81.337 106.815 81.179 106.765 80.987 106.765C80.899 106.765 80.805 106.781 80.705 106.813C80.605 106.841 80.513 106.897 80.429 106.981C80.345 107.061 80.275 107.175 80.219 107.323C80.163 107.467 80.135 107.657 80.135 107.893C80.135 108.021 80.149 108.149 80.177 108.277C80.209 108.405 80.257 108.519 80.321 108.619C80.389 108.719 80.475 108.801 80.579 108.865C80.683 108.925 80.809 108.955 80.957 108.955C81.157 108.955 81.321 108.893 81.449 108.769C81.581 108.645 81.663 108.471 81.695 108.247H82.379C82.315 108.651 82.161 108.961 81.917 109.177C81.677 109.389 81.357 109.495 80.957 109.495C80.713 109.495 80.497 109.455 80.309 109.375C80.125 109.291 79.969 109.179 79.841 109.039C79.713 108.895 79.615 108.725 79.547 108.529C79.483 108.333 79.451 108.121 79.451 107.893C79.451 107.661 79.483 107.443 79.547 107.239C79.611 107.035 79.707 106.859 79.835 106.711C79.963 106.559 80.121 106.441 80.309 106.357C80.501 106.269 80.725 106.225 80.981 106.225C81.161 106.225 81.331 106.249 81.491 106.297C81.655 106.341 81.799 106.409 81.923 106.501C82.051 106.593 82.155 106.709 82.235 106.849C82.315 106.989 82.363 107.155 82.379 107.347H81.695ZM83.3635 105.127H84.0475V106.717H84.0595C84.1435 106.577 84.2675 106.461 84.4315 106.369C84.5995 106.273 84.7855 106.225 84.9895 106.225C85.3295 106.225 85.5975 106.313 85.7935 106.489C85.9895 106.665 86.0875 106.929 86.0875 107.281V109.411H85.4035V107.461C85.3955 107.217 85.3435 107.041 85.2475 106.933C85.1515 106.821 85.0015 106.765 84.7975 106.765C84.6815 106.765 84.5775 106.787 84.4855 106.831C84.3935 106.871 84.3155 106.929 84.2515 107.005C84.1875 107.077 84.1375 107.163 84.1015 107.263C84.0655 107.363 84.0475 107.469 84.0475 107.581V109.411H83.3635V105.127ZM87.2374 106.309H87.8854V106.741H87.9034C87.9554 106.665 88.0114 106.595 88.0714 106.531C88.1314 106.467 88.1974 106.413 88.2694 106.369C88.3454 106.325 88.4314 106.291 88.5274 106.267C88.6234 106.239 88.7334 106.225 88.8574 106.225C89.0454 106.225 89.2194 106.267 89.3794 106.351C89.5434 106.435 89.6594 106.565 89.7274 106.741C89.8434 106.581 89.9774 106.455 90.1294 106.363C90.2814 106.271 90.4714 106.225 90.6994 106.225C91.0274 106.225 91.2814 106.305 91.4614 106.465C91.6454 106.625 91.7374 106.893 91.7374 107.269V109.411H91.0534V107.599C91.0534 107.475 91.0494 107.363 91.0414 107.263C91.0334 107.159 91.0094 107.071 90.9694 106.999C90.9334 106.923 90.8774 106.865 90.8014 106.825C90.7254 106.785 90.6214 106.765 90.4894 106.765C90.2574 106.765 90.0894 106.837 89.9854 106.981C89.8814 107.125 89.8294 107.329 89.8294 107.593V109.411H89.1454V107.419C89.1454 107.203 89.1054 107.041 89.0254 106.933C88.9494 106.821 88.8074 106.765 88.5994 106.765C88.5114 106.765 88.4254 106.783 88.3414 106.819C88.2614 106.855 88.1894 106.907 88.1254 106.975C88.0654 107.043 88.0154 107.127 87.9754 107.227C87.9394 107.327 87.9214 107.441 87.9214 107.569V109.411H87.2374V106.309ZM95.4847 108.721C95.4847 108.805 95.4947 108.865 95.5147 108.901C95.5387 108.937 95.5827 108.955 95.6467 108.955C95.6667 108.955 95.6907 108.955 95.7187 108.955C95.7467 108.955 95.7787 108.951 95.8147 108.943V109.417C95.7907 109.425 95.7587 109.433 95.7187 109.441C95.6827 109.453 95.6447 109.463 95.6047 109.471C95.5647 109.479 95.5247 109.485 95.4847 109.489C95.4447 109.493 95.4107 109.495 95.3827 109.495C95.2427 109.495 95.1267 109.467 95.0347 109.411C94.9427 109.355 94.8827 109.257 94.8547 109.117C94.7187 109.249 94.5507 109.345 94.3507 109.405C94.1547 109.465 93.9647 109.495 93.7807 109.495C93.6407 109.495 93.5067 109.475 93.3787 109.435C93.2507 109.399 93.1367 109.345 93.0367 109.273C92.9407 109.197 92.8627 109.103 92.8027 108.991C92.7467 108.875 92.7187 108.741 92.7187 108.589C92.7187 108.397 92.7527 108.241 92.8207 108.121C92.8927 108.001 92.9847 107.907 93.0967 107.839C93.2127 107.771 93.3407 107.723 93.4807 107.695C93.6247 107.663 93.7687 107.639 93.9127 107.623C94.0367 107.599 94.1547 107.583 94.2667 107.575C94.3787 107.563 94.4767 107.545 94.5607 107.521C94.6487 107.497 94.7167 107.461 94.7647 107.413C94.8167 107.361 94.8427 107.285 94.8427 107.185C94.8427 107.097 94.8207 107.025 94.7767 106.969C94.7367 106.913 94.6847 106.871 94.6207 106.843C94.5607 106.811 94.4927 106.791 94.4167 106.783C94.3407 106.771 94.2687 106.765 94.2007 106.765C94.0087 106.765 93.8507 106.805 93.7267 106.885C93.6027 106.965 93.5327 107.089 93.5167 107.257H92.8327C92.8447 107.057 92.8927 106.891 92.9767 106.759C93.0607 106.627 93.1667 106.521 93.2947 106.441C93.4267 106.361 93.5747 106.305 93.7387 106.273C93.9027 106.241 94.0707 106.225 94.2427 106.225C94.3947 106.225 94.5447 106.241 94.6927 106.273C94.8407 106.305 94.9727 106.357 95.0887 106.429C95.2087 106.501 95.3047 106.595 95.3767 106.711C95.4487 106.823 95.4847 106.961 95.4847 107.125V108.721ZM94.8007 107.857C94.6967 107.925 94.5687 107.967 94.4167 107.983C94.2647 107.995 94.1127 108.015 93.9607 108.043C93.8887 108.055 93.8187 108.073 93.7507 108.097C93.6827 108.117 93.6227 108.147 93.5707 108.187C93.5187 108.223 93.4767 108.273 93.4447 108.337C93.4167 108.397 93.4027 108.471 93.4027 108.559C93.4027 108.635 93.4247 108.699 93.4687 108.751C93.5127 108.803 93.5647 108.845 93.6247 108.877C93.6887 108.905 93.7567 108.925 93.8287 108.937C93.9047 108.949 93.9727 108.955 94.0327 108.955C94.1087 108.955 94.1907 108.945 94.2787 108.925C94.3667 108.905 94.4487 108.871 94.5247 108.823C94.6047 108.775 94.6707 108.715 94.7227 108.643C94.7747 108.567 94.8007 108.475 94.8007 108.367V107.857ZM96.6493 106.309H97.2913V106.909H97.3033C97.3233 106.825 97.3613 106.743 97.4173 106.663C97.4773 106.583 97.5473 106.511 97.6273 106.447C97.7113 106.379 97.8033 106.325 97.9033 106.285C98.0033 106.245 98.1053 106.225 98.2093 106.225C98.2893 106.225 98.3433 106.227 98.3713 106.231C98.4033 106.235 98.4353 106.239 98.4673 106.243V106.903C98.4193 106.895 98.3693 106.889 98.3173 106.885C98.2693 106.877 98.2213 106.873 98.1733 106.873C98.0573 106.873 97.9473 106.897 97.8433 106.945C97.7433 106.989 97.6553 107.057 97.5793 107.149C97.5033 107.237 97.4433 107.347 97.3993 107.479C97.3553 107.611 97.3333 107.763 97.3333 107.935V109.411H96.6493V106.309ZM99.2052 105.127H99.8892V107.563L101.125 106.309H101.965L100.777 107.449L102.079 109.411H101.245L100.297 107.905L99.8892 108.301V109.411H99.2052V105.127ZM104.937 106.309H105.579V106.909H105.591C105.611 106.825 105.649 106.743 105.705 106.663C105.765 106.583 105.835 106.511 105.915 106.447C105.999 106.379 106.091 106.325 106.191 106.285C106.291 106.245 106.393 106.225 106.497 106.225C106.577 106.225 106.631 106.227 106.659 106.231C106.691 106.235 106.723 106.239 106.755 106.243V106.903C106.707 106.895 106.657 106.889 106.605 106.885C106.557 106.877 106.509 106.873 106.461 106.873C106.345 106.873 106.235 106.897 106.131 106.945C106.031 106.989 105.943 107.057 105.867 107.149C105.791 107.237 105.731 107.347 105.687 107.479C105.643 107.611 105.621 107.763 105.621 107.935V109.411H104.937V106.309ZM110.073 108.721C110.073 108.805 110.083 108.865 110.103 108.901C110.127 108.937 110.171 108.955 110.235 108.955C110.255 108.955 110.279 108.955 110.307 108.955C110.335 108.955 110.367 108.951 110.403 108.943V109.417C110.379 109.425 110.347 109.433 110.307 109.441C110.271 109.453 110.233 109.463 110.193 109.471C110.153 109.479 110.113 109.485 110.073 109.489C110.033 109.493 109.999 109.495 109.971 109.495C109.831 109.495 109.715 109.467 109.623 109.411C109.531 109.355 109.471 109.257 109.443 109.117C109.307 109.249 109.139 109.345 108.939 109.405C108.743 109.465 108.553 109.495 108.369 109.495C108.229 109.495 108.095 109.475 107.967 109.435C107.839 109.399 107.725 109.345 107.625 109.273C107.529 109.197 107.451 109.103 107.391 108.991C107.335 108.875 107.307 108.741 107.307 108.589C107.307 108.397 107.341 108.241 107.409 108.121C107.481 108.001 107.573 107.907 107.685 107.839C107.801 107.771 107.929 107.723 108.069 107.695C108.213 107.663 108.357 107.639 108.501 107.623C108.625 107.599 108.743 107.583 108.855 107.575C108.967 107.563 109.065 107.545 109.149 107.521C109.237 107.497 109.305 107.461 109.353 107.413C109.405 107.361 109.431 107.285 109.431 107.185C109.431 107.097 109.409 107.025 109.365 106.969C109.325 106.913 109.273 106.871 109.209 106.843C109.149 106.811 109.081 106.791 109.005 106.783C108.929 106.771 108.857 106.765 108.789 106.765C108.597 106.765 108.439 106.805 108.315 106.885C108.191 106.965 108.121 107.089 108.105 107.257H107.421C107.433 107.057 107.481 106.891 107.565 106.759C107.649 106.627 107.755 106.521 107.883 106.441C108.015 106.361 108.163 106.305 108.327 106.273C108.491 106.241 108.659 106.225 108.831 106.225C108.983 106.225 109.133 106.241 109.281 106.273C109.429 106.305 109.561 106.357 109.677 106.429C109.797 106.501 109.893 106.595 109.965 106.711C110.037 106.823 110.073 106.961 110.073 107.125V108.721ZM109.389 107.857C109.285 107.925 109.157 107.967 109.005 107.983C108.853 107.995 108.701 108.015 108.549 108.043C108.477 108.055 108.407 108.073 108.339 108.097C108.271 108.117 108.211 108.147 108.159 108.187C108.107 108.223 108.065 108.273 108.033 108.337C108.005 108.397 107.991 108.471 107.991 108.559C107.991 108.635 108.013 108.699 108.057 108.751C108.101 108.803 108.153 108.845 108.213 108.877C108.277 108.905 108.345 108.925 108.417 108.937C108.493 108.949 108.561 108.955 108.621 108.955C108.697 108.955 108.779 108.945 108.867 108.925C108.955 108.905 109.037 108.871 109.113 108.823C109.193 108.775 109.259 108.715 109.311 108.643C109.363 108.567 109.389 108.475 109.389 108.367V107.857ZM110.925 106.309H111.441V105.379H112.125V106.309H112.743V106.819H112.125V108.475C112.125 108.547 112.127 108.609 112.131 108.661C112.139 108.713 112.153 108.757 112.173 108.793C112.197 108.829 112.231 108.857 112.275 108.877C112.319 108.893 112.379 108.901 112.455 108.901C112.503 108.901 112.551 108.901 112.599 108.901C112.647 108.897 112.695 108.889 112.743 108.877V109.405C112.667 109.413 112.593 109.421 112.521 109.429C112.449 109.437 112.375 109.441 112.299 109.441C112.119 109.441 111.973 109.425 111.861 109.393C111.753 109.357 111.667 109.307 111.603 109.243C111.543 109.175 111.501 109.091 111.477 108.991C111.457 108.891 111.445 108.777 111.441 108.649V106.819H110.925V106.309ZM115.794 107.587C115.786 107.479 115.762 107.375 115.722 107.275C115.686 107.175 115.634 107.089 115.566 107.017C115.502 106.941 115.422 106.881 115.326 106.837C115.234 106.789 115.13 106.765 115.014 106.765C114.894 106.765 114.784 106.787 114.684 106.831C114.588 106.871 114.504 106.929 114.432 107.005C114.364 107.077 114.308 107.163 114.264 107.263C114.224 107.363 114.202 107.471 114.198 107.587H115.794ZM114.198 108.037C114.198 108.157 114.214 108.273 114.246 108.385C114.282 108.497 114.334 108.595 114.402 108.679C114.47 108.763 114.556 108.831 114.66 108.883C114.764 108.931 114.888 108.955 115.032 108.955C115.232 108.955 115.392 108.913 115.512 108.829C115.636 108.741 115.728 108.611 115.788 108.439H116.436C116.4 108.607 116.338 108.757 116.25 108.889C116.162 109.021 116.056 109.133 115.932 109.225C115.808 109.313 115.668 109.379 115.512 109.423C115.36 109.471 115.2 109.495 115.032 109.495C114.788 109.495 114.572 109.455 114.384 109.375C114.196 109.295 114.036 109.183 113.904 109.039C113.776 108.895 113.678 108.723 113.61 108.523C113.546 108.323 113.514 108.103 113.514 107.863C113.514 107.643 113.548 107.435 113.616 107.239C113.688 107.039 113.788 106.865 113.916 106.717C114.048 106.565 114.206 106.445 114.39 106.357C114.574 106.269 114.782 106.225 115.014 106.225C115.258 106.225 115.476 106.277 115.668 106.381C115.864 106.481 116.026 106.615 116.154 106.783C116.282 106.951 116.374 107.145 116.43 107.365C116.49 107.581 116.506 107.805 116.478 108.037H114.198Z" fill="#7A7A7A"/>
<circle cx="49.3006" cy="93.7914" r="3.60736" fill="#8F98ED"/>
<path d="M67.731 92.0596C67.699 91.9356 67.655 91.8216 67.599 91.7176C67.543 91.6136 67.471 91.5236 67.383 91.4476C67.295 91.3716 67.191 91.3136 67.071 91.2736C66.955 91.2296 66.819 91.2076 66.663 91.2076C66.435 91.2076 66.237 91.2536 66.069 91.3456C65.905 91.4376 65.771 91.5616 65.667 91.7176C65.563 91.8696 65.485 92.0436 65.433 92.2396C65.385 92.4356 65.361 92.6356 65.361 92.8396C65.361 93.0436 65.385 93.2436 65.433 93.4396C65.485 93.6356 65.563 93.8116 65.667 93.9676C65.771 94.1196 65.905 94.2416 66.069 94.3336C66.237 94.4256 66.435 94.4716 66.663 94.4716C66.831 94.4716 66.979 94.4436 67.107 94.3876C67.235 94.3276 67.345 94.2476 67.437 94.1476C67.529 94.0436 67.601 93.9236 67.653 93.7876C67.705 93.6516 67.739 93.5056 67.755 93.3496H68.487C68.471 93.6056 68.415 93.8396 68.319 94.0516C68.227 94.2636 68.101 94.4476 67.941 94.6036C67.781 94.7556 67.593 94.8736 67.377 94.9576C67.161 95.0416 66.923 95.0836 66.663 95.0836C66.343 95.0836 66.055 95.0256 65.799 94.9096C65.547 94.7896 65.333 94.6276 65.157 94.4236C64.981 94.2196 64.845 93.9816 64.749 93.7096C64.657 93.4376 64.611 93.1476 64.611 92.8396C64.611 92.5356 64.657 92.2476 64.749 91.9756C64.845 91.7036 64.981 91.4656 65.157 91.2616C65.333 91.0576 65.547 90.8956 65.799 90.7756C66.055 90.6556 66.343 90.5956 66.663 90.5956C66.903 90.5956 67.129 90.6296 67.341 90.6976C67.553 90.7616 67.739 90.8576 67.899 90.9856C68.063 91.1096 68.195 91.2616 68.295 91.4416C68.395 91.6216 68.457 91.8276 68.481 92.0596H67.731ZM72.2256 94.9816H71.5536V94.5496H71.5416C71.4576 94.7056 71.3316 94.8316 71.1636 94.9276C70.9996 95.0196 70.8316 95.0656 70.6596 95.0656C70.2516 95.0656 69.9556 94.9656 69.7716 94.7656C69.5916 94.5616 69.5016 94.2556 69.5016 93.8476V91.8796H70.1856V93.7816C70.1856 94.0536 70.2376 94.2456 70.3416 94.3576C70.4456 94.4696 70.5916 94.5256 70.7796 94.5256C70.9236 94.5256 71.0436 94.5036 71.1396 94.4596C71.2356 94.4156 71.3136 94.3576 71.3736 94.2856C71.4336 94.2096 71.4756 94.1196 71.4996 94.0156C71.5276 93.9116 71.5416 93.7996 71.5416 93.6796V91.8796H72.2256V94.9816ZM73.3755 91.8796H74.0175V92.4796H74.0295C74.0495 92.3956 74.0875 92.3136 74.1435 92.2336C74.2035 92.1536 74.2735 92.0816 74.3535 92.0176C74.4375 91.9496 74.5295 91.8956 74.6295 91.8556C74.7295 91.8156 74.8315 91.7956 74.9355 91.7956C75.0155 91.7956 75.0695 91.7976 75.0975 91.8016C75.1295 91.8056 75.1615 91.8096 75.1935 91.8136V92.4736C75.1455 92.4656 75.0955 92.4596 75.0435 92.4556C74.9955 92.4476 74.9475 92.4436 74.8995 92.4436C74.7835 92.4436 74.6735 92.4676 74.5695 92.5156C74.4695 92.5596 74.3815 92.6276 74.3055 92.7196C74.2295 92.8076 74.1695 92.9176 74.1255 93.0496C74.0815 93.1816 74.0595 93.3336 74.0595 93.5056V94.9816H73.3755V91.8796ZM75.9135 91.8796H76.5555V92.4796H76.5675C76.5875 92.3956 76.6255 92.3136 76.6815 92.2336C76.7415 92.1536 76.8115 92.0816 76.8915 92.0176C76.9755 91.9496 77.0675 91.8956 77.1675 91.8556C77.2675 91.8156 77.3695 91.7956 77.4735 91.7956C77.5535 91.7956 77.6075 91.7976 77.6355 91.8016C77.6675 91.8056 77.6995 91.8096 77.7315 91.8136V92.4736C77.6835 92.4656 77.6335 92.4596 77.5815 92.4556C77.5335 92.4476 77.4855 92.4436 77.4375 92.4436C77.3215 92.4436 77.2115 92.4676 77.1075 92.5156C77.0075 92.5596 76.9195 92.6276 76.8435 92.7196C76.7675 92.8076 76.7075 92.9176 76.6635 93.0496C76.6195 93.1816 76.5975 93.3336 76.5975 93.5056V94.9816H75.9135V91.8796ZM80.4759 93.1576C80.4679 93.0496 80.4439 92.9456 80.4039 92.8456C80.3679 92.7456 80.3159 92.6596 80.2479 92.5876C80.1839 92.5116 80.1039 92.4516 80.0079 92.4076C79.9159 92.3596 79.8119 92.3356 79.6959 92.3356C79.5759 92.3356 79.4659 92.3576 79.3659 92.4016C79.2699 92.4416 79.1859 92.4996 79.1139 92.5756C79.0459 92.6476 78.9899 92.7336 78.9459 92.8336C78.9059 92.9336 78.8839 93.0416 78.8799 93.1576H80.4759ZM78.8799 93.6076C78.8799 93.7276 78.8959 93.8436 78.9279 93.9556C78.9639 94.0676 79.0159 94.1656 79.0839 94.2496C79.1519 94.3336 79.2379 94.4016 79.3419 94.4536C79.4459 94.5016 79.5699 94.5256 79.7139 94.5256C79.9139 94.5256 80.0739 94.4836 80.1939 94.3996C80.3179 94.3116 80.4099 94.1816 80.4699 94.0096H81.1179C81.0819 94.1776 81.0199 94.3276 80.9319 94.4596C80.8439 94.5916 80.7379 94.7036 80.6139 94.7956C80.4899 94.8836 80.3499 94.9496 80.1939 94.9936C80.0419 95.0416 79.8819 95.0656 79.7139 95.0656C79.4699 95.0656 79.2539 95.0256 79.0659 94.9456C78.8779 94.8656 78.7179 94.7536 78.5859 94.6096C78.4579 94.4656 78.3599 94.2936 78.2919 94.0936C78.2279 93.8936 78.1959 93.6736 78.1959 93.4336C78.1959 93.2136 78.2299 93.0056 78.2979 92.8096C78.3699 92.6096 78.4699 92.4356 78.5979 92.2876C78.7299 92.1356 78.8879 92.0156 79.0719 91.9276C79.2559 91.8396 79.4639 91.7956 79.6959 91.7956C79.9399 91.7956 80.1579 91.8476 80.3499 91.9516C80.5459 92.0516 80.7079 92.1856 80.8359 92.3536C80.9639 92.5216 81.0559 92.7156 81.1119 92.9356C81.1719 93.1516 81.1879 93.3756 81.1599 93.6076H78.8799ZM82.1085 91.8796H82.7565V92.3356L82.7685 92.3476C82.8725 92.1756 83.0085 92.0416 83.1765 91.9456C83.3445 91.8456 83.5305 91.7956 83.7345 91.7956C84.0745 91.7956 84.3425 91.8836 84.5385 92.0596C84.7345 92.2356 84.8325 92.4996 84.8325 92.8516V94.9816H84.1485V93.0316C84.1405 92.7876 84.0885 92.6116 83.9925 92.5036C83.8965 92.3916 83.7465 92.3356 83.5425 92.3356C83.4265 92.3356 83.3225 92.3576 83.2305 92.4016C83.1385 92.4416 83.0605 92.4996 82.9965 92.5756C82.9325 92.6476 82.8825 92.7336 82.8465 92.8336C82.8105 92.9336 82.7925 93.0396 82.7925 93.1516V94.9816H82.1085V91.8796ZM85.6704 91.8796H86.1864V90.9496H86.8704V91.8796H87.4884V92.3896H86.8704V94.0456C86.8704 94.1176 86.8724 94.1796 86.8764 94.2316C86.8844 94.2836 86.8984 94.3276 86.9184 94.3636C86.9424 94.3996 86.9764 94.4276 87.0204 94.4476C87.0644 94.4636 87.1244 94.4716 87.2004 94.4716C87.2484 94.4716 87.2964 94.4716 87.3444 94.4716C87.3924 94.4676 87.4404 94.4596 87.4884 94.4476V94.9756C87.4124 94.9836 87.3384 94.9916 87.2664 94.9996C87.1944 95.0076 87.1204 95.0116 87.0444 95.0116C86.8644 95.0116 86.7184 94.9956 86.6064 94.9636C86.4984 94.9276 86.4124 94.8776 86.3484 94.8136C86.2884 94.7456 86.2464 94.6616 86.2224 94.5616C86.2024 94.4616 86.1904 94.3476 86.1864 94.2196V92.3896H85.6704V91.8796ZM90.5075 91.8796H91.1495V92.4796H91.1615C91.1815 92.3956 91.2195 92.3136 91.2755 92.2336C91.3355 92.1536 91.4055 92.0816 91.4855 92.0176C91.5695 91.9496 91.6615 91.8956 91.7615 91.8556C91.8615 91.8156 91.9635 91.7956 92.0675 91.7956C92.1475 91.7956 92.2015 91.7976 92.2295 91.8016C92.2615 91.8056 92.2935 91.8096 92.3255 91.8136V92.4736C92.2775 92.4656 92.2275 92.4596 92.1755 92.4556C92.1275 92.4476 92.0795 92.4436 92.0315 92.4436C91.9155 92.4436 91.8055 92.4676 91.7015 92.5156C91.6015 92.5596 91.5135 92.6276 91.4375 92.7196C91.3615 92.8076 91.3015 92.9176 91.2575 93.0496C91.2135 93.1816 91.1915 93.3336 91.1915 93.5056V94.9816H90.5075V91.8796ZM95.6434 94.2916C95.6434 94.3756 95.6534 94.4356 95.6734 94.4716C95.6974 94.5076 95.7414 94.5256 95.8054 94.5256C95.8254 94.5256 95.8494 94.5256 95.8774 94.5256C95.9054 94.5256 95.9374 94.5216 95.9734 94.5136V94.9876C95.9494 94.9956 95.9174 95.0036 95.8774 95.0116C95.8414 95.0236 95.8034 95.0336 95.7634 95.0416C95.7234 95.0496 95.6834 95.0556 95.6434 95.0596C95.6034 95.0636 95.5694 95.0656 95.5414 95.0656C95.4014 95.0656 95.2854 95.0376 95.1934 94.9816C95.1014 94.9256 95.0414 94.8276 95.0134 94.6876C94.8774 94.8196 94.7094 94.9156 94.5094 94.9756C94.3134 95.0356 94.1234 95.0656 93.9394 95.0656C93.7994 95.0656 93.6654 95.0456 93.5374 95.0056C93.4094 94.9696 93.2954 94.9156 93.1954 94.8436C93.0994 94.7676 93.0214 94.6736 92.9614 94.5616C92.9054 94.4456 92.8774 94.3116 92.8774 94.1596C92.8774 93.9676 92.9114 93.8116 92.9794 93.6916C93.0514 93.5716 93.1434 93.4776 93.2554 93.4096C93.3714 93.3416 93.4994 93.2936 93.6394 93.2656C93.7834 93.2336 93.9274 93.2096 94.0714 93.1936C94.1954 93.1696 94.3134 93.1536 94.4254 93.1456C94.5374 93.1336 94.6354 93.1156 94.7194 93.0916C94.8074 93.0676 94.8754 93.0316 94.9234 92.9836C94.9754 92.9316 95.0014 92.8556 95.0014 92.7556C95.0014 92.6676 94.9794 92.5956 94.9354 92.5396C94.8954 92.4836 94.8434 92.4416 94.7794 92.4136C94.7194 92.3816 94.6514 92.3616 94.5754 92.3536C94.4994 92.3416 94.4274 92.3356 94.3594 92.3356C94.1674 92.3356 94.0094 92.3756 93.8854 92.4556C93.7614 92.5356 93.6914 92.6596 93.6754 92.8276H92.9914C93.0034 92.6276 93.0514 92.4616 93.1354 92.3296C93.2194 92.1976 93.3254 92.0916 93.4534 92.0116C93.5854 91.9316 93.7334 91.8756 93.8974 91.8436C94.0614 91.8116 94.2294 91.7956 94.4014 91.7956C94.5534 91.7956 94.7034 91.8116 94.8514 91.8436C94.9994 91.8756 95.1314 91.9276 95.2474 91.9996C95.3674 92.0716 95.4634 92.1656 95.5354 92.2816C95.6074 92.3936 95.6434 92.5316 95.6434 92.6956V94.2916ZM94.9594 93.4276C94.8554 93.4956 94.7274 93.5376 94.5754 93.5536C94.4234 93.5656 94.2714 93.5856 94.1194 93.6136C94.0474 93.6256 93.9774 93.6436 93.9094 93.6676C93.8414 93.6876 93.7814 93.7176 93.7294 93.7576C93.6774 93.7936 93.6354 93.8436 93.6034 93.9076C93.5754 93.9676 93.5614 94.0416 93.5614 94.1296C93.5614 94.2056 93.5834 94.2696 93.6274 94.3216C93.6714 94.3736 93.7234 94.4156 93.7834 94.4476C93.8474 94.4756 93.9154 94.4956 93.9874 94.5076C94.0634 94.5196 94.1314 94.5256 94.1914 94.5256C94.2674 94.5256 94.3494 94.5156 94.4374 94.4956C94.5254 94.4756 94.6074 94.4416 94.6834 94.3936C94.7634 94.3456 94.8294 94.2856 94.8814 94.2136C94.9334 94.1376 94.9594 94.0456 94.9594 93.9376V93.4276ZM96.496 91.8796H97.012V90.9496H97.696V91.8796H98.314V92.3896H97.696V94.0456C97.696 94.1176 97.698 94.1796 97.702 94.2316C97.71 94.2836 97.724 94.3276 97.744 94.3636C97.768 94.3996 97.802 94.4276 97.846 94.4476C97.89 94.4636 97.95 94.4716 98.026 94.4716C98.074 94.4716 98.122 94.4716 98.17 94.4716C98.218 94.4676 98.266 94.4596 98.314 94.4476V94.9756C98.238 94.9836 98.164 94.9916 98.092 94.9996C98.02 95.0076 97.946 95.0116 97.87 95.0116C97.69 95.0116 97.544 94.9956 97.432 94.9636C97.324 94.9276 97.238 94.8776 97.174 94.8136C97.114 94.7456 97.072 94.6616 97.048 94.5616C97.028 94.4616 97.016 94.3476 97.012 94.2196V92.3896H96.496V91.8796ZM101.365 93.1576C101.357 93.0496 101.333 92.9456 101.293 92.8456C101.257 92.7456 101.205 92.6596 101.137 92.5876C101.073 92.5116 100.993 92.4516 100.897 92.4076C100.805 92.3596 100.701 92.3356 100.585 92.3356C100.465 92.3356 100.355 92.3576 100.255 92.4016C100.159 92.4416 100.075 92.4996 100.003 92.5756C99.9346 92.6476 99.8786 92.7336 99.8346 92.8336C99.7946 92.9336 99.7726 93.0416 99.7686 93.1576H101.365ZM99.7686 93.6076C99.7686 93.7276 99.7846 93.8436 99.8166 93.9556C99.8526 94.0676 99.9046 94.1656 99.9726 94.2496C100.041 94.3336 100.127 94.4016 100.231 94.4536C100.335 94.5016 100.459 94.5256 100.603 94.5256C100.803 94.5256 100.963 94.4836 101.083 94.3996C101.207 94.3116 101.299 94.1816 101.359 94.0096H102.007C101.971 94.1776 101.909 94.3276 101.821 94.4596C101.733 94.5916 101.627 94.7036 101.503 94.7956C101.379 94.8836 101.239 94.9496 101.083 94.9936C100.931 95.0416 100.771 95.0656 100.603 95.0656C100.359 95.0656 100.143 95.0256 99.9546 94.9456C99.7666 94.8656 99.6066 94.7536 99.4746 94.6096C99.3466 94.4656 99.2486 94.2936 99.1806 94.0936C99.1166 93.8936 99.0846 93.6736 99.0846 93.4336C99.0846 93.2136 99.1186 93.0056 99.1866 92.8096C99.2586 92.6096 99.3586 92.4356 99.4866 92.2876C99.6186 92.1356 99.7766 92.0156 99.9606 91.9276C100.145 91.8396 100.353 91.7956 100.585 91.7956C100.829 91.7956 101.047 91.8476 101.239 91.9516C101.435 92.0516 101.597 92.1856 101.725 92.3536C101.853 92.5216 101.945 92.7156 102.001 92.9356C102.061 93.1516 102.077 93.3756 102.049 93.6076H99.7686Z" fill="#7A7A7A"/>
<g filter="url(#filter2_d_13_737)">
<g filter="url(#filter3_d_13_737)">
<rect x="236.883" y="21.6442" width="144.294" height="29.6151" rx="6" fill="white"/>
<rect x="237.383" y="22.1442" width="143.294" height="28.6151" rx="5.5" stroke="#E5E7EB"/>
</g>
</g>
<path d="M246.864 31.9704L248.888 37.8937H248.97L250.994 31.9704H252.18L249.563 39.2432H248.295L245.678 31.9704H246.864ZM252.645 39.2432V33.7886H253.707V39.2432H252.645ZM253.181 32.947C252.997 32.947 252.838 32.8854 252.705 32.7623C252.575 32.6369 252.51 32.4877 252.51 32.3149C252.51 32.1397 252.575 31.9906 252.705 31.8675C252.838 31.742 252.997 31.6792 253.181 31.6792C253.366 31.6792 253.523 31.742 253.654 31.8675C253.786 31.9906 253.852 32.1397 253.852 32.3149C253.852 32.4877 253.786 32.6369 253.654 32.7623C253.523 32.8854 253.366 32.947 253.181 32.947ZM256.986 39.3532C256.449 39.3532 255.986 39.2384 255.598 39.0088C255.212 38.7768 254.913 38.4513 254.703 38.0322C254.494 37.6108 254.39 37.1172 254.39 36.5514C254.39 35.9927 254.494 35.5003 254.703 35.0741C254.913 34.648 255.207 34.3154 255.583 34.0763C255.962 33.8372 256.405 33.7176 256.912 33.7176C257.219 33.7176 257.518 33.7685 257.806 33.8703C258.095 33.9721 258.355 34.1319 258.584 34.3497C258.814 34.5675 258.995 34.8504 259.127 35.1984C259.26 35.5441 259.326 35.9643 259.326 36.4591V36.8355H254.99V36.04H258.286C258.286 35.7607 258.229 35.5133 258.115 35.2979C258.002 35.08 257.842 34.9084 257.636 34.7829C257.432 34.6575 257.193 34.5947 256.919 34.5947C256.62 34.5947 256.36 34.6681 256.137 34.8149C255.917 34.9593 255.747 35.1487 255.626 35.3831C255.508 35.6151 255.448 35.8672 255.448 36.1395V36.7609C255.448 37.1255 255.512 37.4356 255.64 37.6913C255.77 37.947 255.952 38.1423 256.184 38.2773C256.416 38.4098 256.687 38.4761 256.997 38.4761C257.198 38.4761 257.381 38.4477 257.547 38.3909C257.713 38.3317 257.856 38.2441 257.977 38.1281C258.098 38.0121 258.19 37.8689 258.254 37.6984L259.259 37.8795C259.178 38.1755 259.034 38.4347 258.826 38.6572C258.62 38.8774 258.36 39.049 258.048 39.1721C257.738 39.2929 257.384 39.3532 256.986 39.3532ZM261.177 39.2432L259.572 33.7886H260.669L261.738 37.7943H261.792L262.864 33.7886H263.961L265.027 37.7765H265.08L266.142 33.7886H267.239L265.637 39.2432H264.554L263.446 35.305H263.365L262.257 39.2432H261.177ZM269.893 39.2432V33.7886H270.919V34.6551H270.976C271.076 34.3615 271.251 34.1307 271.502 33.9626C271.755 33.7922 272.042 33.7069 272.361 33.7069C272.427 33.7069 272.506 33.7093 272.596 33.714C272.688 33.7188 272.76 33.7247 272.812 33.7318V34.7474C272.77 34.7356 272.694 34.7226 272.585 34.7084C272.476 34.6918 272.367 34.6835 272.258 34.6835C272.007 34.6835 271.783 34.7368 271.587 34.8433C271.393 34.9475 271.239 35.0931 271.125 35.2801C271.012 35.4648 270.955 35.6755 270.955 35.9122V39.2432H269.893ZM275.387 39.3532C274.849 39.3532 274.386 39.2384 273.998 39.0088C273.612 38.7768 273.314 38.4513 273.103 38.0322C272.895 37.6108 272.791 37.1172 272.791 36.5514C272.791 35.9927 272.895 35.5003 273.103 35.0741C273.314 34.648 273.607 34.3154 273.984 34.0763C274.363 33.8372 274.805 33.7176 275.312 33.7176C275.62 33.7176 275.918 33.7685 276.207 33.8703C276.496 33.9721 276.755 34.1319 276.985 34.3497C277.214 34.5675 277.395 34.8504 277.528 35.1984C277.66 35.5441 277.727 35.9643 277.727 36.4591V36.8355H273.391V36.04H276.686C276.686 35.7607 276.629 35.5133 276.516 35.2979C276.402 35.08 276.242 34.9084 276.036 34.7829C275.833 34.6575 275.594 34.5947 275.319 34.5947C275.021 34.5947 274.76 34.6681 274.538 34.8149C274.318 34.9593 274.147 35.1487 274.026 35.3831C273.908 35.6151 273.849 35.8672 273.849 36.1395V36.7609C273.849 37.1255 273.913 37.4356 274.041 37.6913C274.171 37.947 274.352 38.1423 274.584 38.2773C274.816 38.4098 275.087 38.4761 275.397 38.4761C275.598 38.4761 275.782 38.4477 275.948 38.3909C276.113 38.3317 276.257 38.2441 276.377 38.1281C276.498 38.0121 276.59 37.8689 276.654 37.6984L277.659 37.8795C277.579 38.1755 277.434 38.4347 277.226 38.6572C277.02 38.8774 276.761 39.049 276.448 39.1721C276.138 39.2929 275.784 39.3532 275.387 39.3532ZM280.702 39.3532C280.174 39.3532 279.72 39.2337 279.339 38.9946C278.96 38.7531 278.669 38.4205 278.465 37.9967C278.262 37.5729 278.16 37.0876 278.16 36.5407C278.16 35.9868 278.264 35.4979 278.472 35.0741C278.681 34.648 278.974 34.3154 279.353 34.0763C279.732 33.8372 280.178 33.7176 280.692 33.7176C281.106 33.7176 281.475 33.7945 281.8 33.9484C282.124 34.0999 282.386 34.313 282.585 34.5876C282.786 34.8622 282.905 35.183 282.943 35.55H281.91C281.853 35.2943 281.723 35.0741 281.519 34.8895C281.318 34.7048 281.048 34.6125 280.71 34.6125C280.414 34.6125 280.154 34.6906 279.932 34.8469C279.712 35.0007 279.54 35.2209 279.417 35.5074C279.294 35.7915 279.232 36.1276 279.232 36.5159C279.232 36.9136 279.293 37.2569 279.413 37.5457C279.534 37.8345 279.705 38.0583 279.925 38.2169C280.147 38.3755 280.409 38.4548 280.71 38.4548C280.911 38.4548 281.093 38.4181 281.256 38.3447C281.422 38.269 281.561 38.1613 281.672 38.0216C281.786 37.8819 281.865 37.7138 281.91 37.5173H282.943C282.905 37.8701 282.79 38.1849 282.599 38.4619C282.407 38.7389 282.15 38.9567 281.828 39.1153C281.509 39.2739 281.133 39.3532 280.702 39.3532ZM285.876 39.3532C285.365 39.3532 284.919 39.2361 284.537 39.0017C284.156 38.7673 283.86 38.4394 283.65 38.018C283.439 37.5966 283.334 37.1042 283.334 36.5407C283.334 35.9749 283.439 35.4801 283.65 35.0564C283.86 34.6326 284.156 34.3035 284.537 34.0692C284.919 33.8348 285.365 33.7176 285.876 33.7176C286.388 33.7176 286.834 33.8348 287.215 34.0692C287.596 34.3035 287.892 34.6326 288.103 35.0564C288.313 35.4801 288.419 35.9749 288.419 36.5407C288.419 37.1042 288.313 37.5966 288.103 38.018C287.892 38.4394 287.596 38.7673 287.215 39.0017C286.834 39.2361 286.388 39.3532 285.876 39.3532ZM285.88 38.4619C286.211 38.4619 286.486 38.3743 286.704 38.1991C286.921 38.0239 287.082 37.7907 287.187 37.4996C287.293 37.2084 287.346 36.8876 287.346 36.5372C287.346 36.1892 287.293 35.8696 287.187 35.5784C287.082 35.2848 286.921 35.0493 286.704 34.8717C286.486 34.6942 286.211 34.6054 285.88 34.6054C285.546 34.6054 285.269 34.6942 285.049 34.8717C284.831 35.0493 284.669 35.2848 284.562 35.5784C284.458 35.8696 284.406 36.1892 284.406 36.5372C284.406 36.8876 284.458 37.2084 284.562 37.4996C284.669 37.7907 284.831 38.0239 285.049 38.1991C285.269 38.3743 285.546 38.4619 285.88 38.4619ZM289.104 39.2432V33.7886H290.123V34.6764H290.191C290.304 34.3757 290.49 34.1414 290.748 33.9733C291.006 33.8028 291.315 33.7176 291.675 33.7176C292.04 33.7176 292.345 33.8028 292.591 33.9733C292.84 34.1437 293.023 34.3781 293.142 34.6764H293.198C293.329 34.3852 293.536 34.1532 293.82 33.9804C294.104 33.8052 294.443 33.7176 294.836 33.7176C295.33 33.7176 295.734 33.8727 296.047 34.1828C296.361 34.4929 296.519 34.9605 296.519 35.5855V39.2432H295.457V35.6849C295.457 35.3156 295.356 35.0481 295.155 34.8824C294.954 34.7166 294.714 34.6338 294.434 34.6338C294.089 34.6338 293.82 34.7403 293.628 34.9534C293.436 35.1641 293.341 35.4352 293.341 35.7666V39.2432H292.282V35.6175C292.282 35.3215 292.19 35.0836 292.005 34.9037C291.821 34.7238 291.58 34.6338 291.284 34.6338C291.083 34.6338 290.897 34.6871 290.727 34.7936C290.559 34.8978 290.423 35.0434 290.319 35.2304C290.217 35.4174 290.166 35.634 290.166 35.8802V39.2432H289.104ZM297.442 39.2432V33.7886H298.461V34.6764H298.529C298.642 34.3757 298.828 34.1414 299.086 33.9733C299.344 33.8028 299.653 33.7176 300.013 33.7176C300.378 33.7176 300.683 33.8028 300.929 33.9733C301.178 34.1437 301.361 34.3781 301.48 34.6764H301.536C301.667 34.3852 301.874 34.1532 302.158 33.9804C302.442 33.8052 302.78 33.7176 303.173 33.7176C303.668 33.7176 304.072 33.8727 304.384 34.1828C304.699 34.4929 304.857 34.9605 304.857 35.5855V39.2432H303.795V35.6849C303.795 35.3156 303.694 35.0481 303.493 34.8824C303.292 34.7166 303.052 34.6338 302.772 34.6338C302.427 34.6338 302.158 34.7403 301.966 34.9534C301.774 35.1641 301.678 35.4352 301.678 35.7666V39.2432H300.62V35.6175C300.62 35.3215 300.528 35.0836 300.343 34.9037C300.159 34.7238 299.918 34.6338 299.622 34.6338C299.421 34.6338 299.235 34.6871 299.065 34.7936C298.897 34.8978 298.761 35.0434 298.656 35.2304C298.555 35.4174 298.504 35.634 298.504 35.8802V39.2432H297.442ZM308.131 39.3532C307.593 39.3532 307.13 39.2384 306.742 39.0088C306.356 38.7768 306.058 38.4513 305.847 38.0322C305.639 37.6108 305.535 37.1172 305.535 36.5514C305.535 35.9927 305.639 35.5003 305.847 35.0741C306.058 34.648 306.352 34.3154 306.728 34.0763C307.107 33.8372 307.549 33.7176 308.056 33.7176C308.364 33.7176 308.662 33.7685 308.951 33.8703C309.24 33.9721 309.499 34.1319 309.729 34.3497C309.958 34.5675 310.139 34.8504 310.272 35.1984C310.405 35.5441 310.471 35.9643 310.471 36.4591V36.8355H306.135V36.04H309.43C309.43 35.7607 309.374 35.5133 309.26 35.2979C309.146 35.08 308.986 34.9084 308.781 34.7829C308.577 34.6575 308.338 34.5947 308.063 34.5947C307.765 34.5947 307.504 34.6681 307.282 34.8149C307.062 34.9593 306.891 35.1487 306.771 35.3831C306.652 35.6151 306.593 35.8672 306.593 36.1395V36.7609C306.593 37.1255 306.657 37.4356 306.785 37.6913C306.915 37.947 307.096 38.1423 307.328 38.2773C307.56 38.4098 307.831 38.4761 308.141 38.4761C308.343 38.4761 308.526 38.4477 308.692 38.3909C308.857 38.3317 309.001 38.2441 309.121 38.1281C309.242 38.0121 309.335 37.8689 309.398 37.6984L310.403 37.8795C310.323 38.1755 310.178 38.4347 309.97 38.6572C309.764 38.8774 309.505 39.049 309.192 39.1721C308.882 39.2929 308.528 39.3532 308.131 39.3532ZM312.211 36.0045V39.2432H311.149V33.7886H312.168V34.6764H312.236C312.361 34.3876 312.558 34.1556 312.825 33.9804C313.095 33.8052 313.435 33.7176 313.844 33.7176C314.216 33.7176 314.541 33.7957 314.821 33.952C315.1 34.1059 315.317 34.3355 315.471 34.6409C315.625 34.9463 315.702 35.3239 315.702 35.7737V39.2432H314.64V35.9015C314.64 35.5062 314.537 35.1972 314.331 34.9747C314.125 34.7498 313.842 34.6373 313.482 34.6373C313.236 34.6373 313.017 34.6906 312.825 34.7971C312.636 34.9037 312.485 35.0599 312.374 35.2659C312.265 35.4695 312.211 35.7157 312.211 36.0045ZM318.667 39.3497C318.227 39.3497 317.834 39.2372 317.488 39.0123C317.145 38.7851 316.875 38.4619 316.679 38.0429C316.485 37.6215 316.388 37.116 316.388 36.5265C316.388 35.9371 316.486 35.4328 316.682 35.0138C316.881 34.5947 317.153 34.2739 317.499 34.0514C317.845 33.8289 318.237 33.7176 318.675 33.7176C319.013 33.7176 319.285 33.7744 319.491 33.8881C319.7 33.9993 319.861 34.1295 319.974 34.2787C320.09 34.4278 320.18 34.5592 320.244 34.6729H320.308V31.9704H321.37V39.2432H320.333V38.3944H320.244C320.18 38.5104 320.088 38.643 319.967 38.7922C319.849 38.9413 319.685 39.0715 319.477 39.1828C319.269 39.2941 318.999 39.3497 318.667 39.3497ZM318.902 38.4442C319.207 38.4442 319.465 38.3637 319.676 38.2027C319.889 38.0393 320.05 37.8132 320.159 37.5244C320.27 37.2356 320.326 36.8994 320.326 36.5159C320.326 36.1371 320.271 35.8057 320.162 35.5216C320.054 35.2375 319.894 35.0161 319.683 34.8575C319.472 34.6989 319.212 34.6196 318.902 34.6196C318.582 34.6196 318.316 34.7024 318.103 34.8682C317.89 35.0339 317.729 35.26 317.62 35.5464C317.513 35.8329 317.46 36.156 317.46 36.5159C317.46 36.8805 317.514 37.2084 317.623 37.4996C317.732 37.7907 317.893 38.0216 318.106 38.192C318.322 38.3601 318.587 38.4442 318.902 38.4442ZM323.973 39.3639C323.627 39.3639 323.315 39.3 323.035 39.1721C322.756 39.0419 322.534 38.8537 322.371 38.6075C322.21 38.3613 322.13 38.0595 322.13 37.702C322.13 37.3942 322.189 37.1409 322.307 36.942C322.426 36.7432 322.585 36.5857 322.787 36.4697C322.988 36.3537 323.213 36.2661 323.461 36.2069C323.71 36.1478 323.963 36.1028 324.221 36.072C324.548 36.0341 324.813 36.0033 325.017 35.9797C325.22 35.9536 325.368 35.9122 325.461 35.8554C325.553 35.7986 325.599 35.7062 325.599 35.5784V35.5535C325.599 35.2434 325.511 35.0031 325.336 34.8327C325.163 34.6622 324.905 34.577 324.562 34.577C324.205 34.577 323.923 34.6563 323.717 34.8149C323.513 34.9711 323.373 35.1452 323.294 35.3369L322.297 35.1096C322.415 34.7782 322.588 34.5107 322.815 34.3071C323.045 34.1011 323.309 33.952 323.607 33.8596C323.905 33.7649 324.219 33.7176 324.548 33.7176C324.766 33.7176 324.997 33.7436 325.24 33.7957C325.487 33.8454 325.716 33.9378 325.929 34.0727C326.145 34.2077 326.321 34.4006 326.458 34.6515C326.596 34.9001 326.664 35.2233 326.664 35.621V39.2432H325.627V38.4974H325.585C325.516 38.6347 325.413 38.7697 325.276 38.9023C325.139 39.0348 324.962 39.1449 324.747 39.2325C324.531 39.3201 324.273 39.3639 323.973 39.3639ZM324.203 38.5116C324.497 38.5116 324.748 38.4536 324.956 38.3376C325.167 38.2216 325.327 38.0701 325.436 37.8831C325.547 37.6937 325.603 37.4913 325.603 37.2758V36.5727C325.565 36.6106 325.491 36.6461 325.382 36.6792C325.276 36.71 325.154 36.7372 325.017 36.7609C324.879 36.7822 324.746 36.8023 324.615 36.8213C324.485 36.8379 324.376 36.8521 324.289 36.8639C324.083 36.8899 323.895 36.9337 323.724 36.9953C323.556 37.0568 323.421 37.1456 323.319 37.2616C323.22 37.3753 323.17 37.5268 323.17 37.7162C323.17 37.979 323.267 38.1778 323.461 38.3128C323.655 38.4453 323.903 38.5116 324.203 38.5116ZM330.125 33.7886V34.6409H327.145V33.7886H330.125ZM327.944 32.4818H329.006V37.6416C329.006 37.8476 329.037 38.0026 329.099 38.1068C329.16 38.2086 329.239 38.2784 329.336 38.3163C329.436 38.3518 329.544 38.3696 329.66 38.3696C329.745 38.3696 329.819 38.3637 329.883 38.3518C329.947 38.34 329.997 38.3305 330.032 38.3234L330.224 39.2006C330.163 39.2242 330.075 39.2479 329.961 39.2716C329.848 39.2976 329.706 39.3118 329.535 39.3142C329.256 39.3189 328.996 39.2692 328.754 39.165C328.513 39.0609 328.317 38.8999 328.168 38.6821C328.019 38.4643 327.944 38.1908 327.944 37.8618V32.4818ZM330.799 39.2432V33.7886H331.861V39.2432H330.799ZM331.336 32.947C331.151 32.947 330.992 32.8854 330.86 32.7623C330.73 32.6369 330.664 32.4877 330.664 32.3149C330.664 32.1397 330.73 31.9906 330.86 31.8675C330.992 31.742 331.151 31.6792 331.336 31.6792C331.52 31.6792 331.678 31.742 331.808 31.8675C331.94 31.9906 332.007 32.1397 332.007 32.3149C332.007 32.4877 331.94 32.6369 331.808 32.7623C331.678 32.8854 331.52 32.947 331.336 32.947ZM335.087 39.3532C334.576 39.3532 334.13 39.2361 333.748 39.0017C333.367 38.7673 333.071 38.4394 332.861 38.018C332.65 37.5966 332.545 37.1042 332.545 36.5407C332.545 35.9749 332.65 35.4801 332.861 35.0564C333.071 34.6326 333.367 34.3035 333.748 34.0692C334.13 33.8348 334.576 33.7176 335.087 33.7176C335.599 33.7176 336.045 33.8348 336.426 34.0692C336.807 34.3035 337.103 34.6326 337.314 35.0564C337.524 35.4801 337.63 35.9749 337.63 36.5407C337.63 37.1042 337.524 37.5966 337.314 38.018C337.103 38.4394 336.807 38.7673 336.426 39.0017C336.045 39.2361 335.599 39.3532 335.087 39.3532ZM335.091 38.4619C335.422 38.4619 335.697 38.3743 335.915 38.1991C336.132 38.0239 336.293 37.7907 336.398 37.4996C336.504 37.2084 336.557 36.8876 336.557 36.5372C336.557 36.1892 336.504 35.8696 336.398 35.5784C336.293 35.2848 336.132 35.0493 335.915 34.8717C335.697 34.6942 335.422 34.6054 335.091 34.6054C334.757 34.6054 334.48 34.6942 334.26 34.8717C334.042 35.0493 333.88 35.2848 333.773 35.5784C333.669 35.8696 333.617 36.1892 333.617 36.5372C333.617 36.8876 333.669 37.2084 333.773 37.4996C333.88 37.7907 334.042 38.0239 334.26 38.1991C334.48 38.3743 334.757 38.4619 335.091 38.4619ZM339.377 36.0045V39.2432H338.315V33.7886H339.334V34.6764H339.402C339.527 34.3876 339.724 34.1556 339.991 33.9804C340.261 33.8052 340.601 33.7176 341.01 33.7176C341.382 33.7176 341.707 33.7957 341.987 33.952C342.266 34.1059 342.483 34.3355 342.637 34.6409C342.791 34.9463 342.868 35.3239 342.868 35.7737V39.2432H341.806V35.9015C341.806 35.5062 341.703 35.1972 341.497 34.9747C341.291 34.7498 341.008 34.6373 340.648 34.6373C340.402 34.6373 340.183 34.6906 339.991 34.7971C339.802 34.9037 339.651 35.0599 339.54 35.2659C339.431 35.4695 339.377 35.7157 339.377 36.0045ZM347.879 35.1203L346.917 35.2907C346.876 35.1676 346.812 35.0505 346.725 34.9392C346.64 34.8279 346.524 34.7368 346.377 34.6657C346.23 34.5947 346.047 34.5592 345.826 34.5592C345.526 34.5592 345.275 34.6267 345.073 34.7616C344.872 34.8942 344.772 35.0658 344.772 35.2765C344.772 35.4588 344.839 35.6056 344.974 35.7169C345.109 35.8282 345.327 35.9193 345.627 35.9903L346.494 36.1892C346.996 36.3052 347.37 36.4839 347.616 36.7254C347.862 36.9669 347.985 37.2806 347.985 37.6665C347.985 37.9932 347.891 38.2844 347.701 38.54C347.514 38.7934 347.253 38.9922 346.917 39.1366C346.583 39.281 346.196 39.3532 345.755 39.3532C345.145 39.3532 344.646 39.223 344.26 38.9626C343.874 38.6998 343.638 38.327 343.55 37.844L344.576 37.6878C344.64 37.9553 344.772 38.1577 344.971 38.295C345.169 38.43 345.429 38.4974 345.748 38.4974C346.096 38.4974 346.374 38.4252 346.583 38.2808C346.791 38.134 346.895 37.9553 346.895 37.7446C346.895 37.5741 346.831 37.4309 346.703 37.3149C346.578 37.1989 346.385 37.1113 346.125 37.0521L345.201 36.8497C344.692 36.7337 344.316 36.549 344.072 36.2957C343.831 36.0424 343.71 35.7216 343.71 35.3334C343.71 35.0114 343.8 34.7297 343.98 34.4882C344.16 34.2467 344.408 34.0585 344.725 33.9236C345.043 33.7863 345.406 33.7176 345.816 33.7176C346.405 33.7176 346.869 33.8454 347.208 34.1011C347.546 34.3544 347.77 34.6942 347.879 35.1203Z" fill="#7A7A7A"/>
<path d="M33.1772 161.288C33.1772 161.288 92.0629 122.463 100.772 124.07C109.481 125.677 114.035 138.079 117.654 138.643C121.274 139.207 141.097 142.846 148.721 143.488C156.345 144.129 168.867 127.228 176.597 127.19C184.327 127.151 226.476 136.212 231.19 135.703C235.904 135.195 294.864 97.8747 294.864 97.8747" stroke="#79BBFA" stroke-width="3" stroke-linecap="round"/>
<path d="M35.2266 149.03C35.2266 149.03 100.045 121.221 108.333 124.341C116.622 127.461 118.913 140.472 122.376 141.667C125.838 142.862 144.707 149.946 152.098 151.924C159.488 153.903 174.8 139.479 182.415 140.807C190.03 142.135 229.915 158.5 234.645 158.832C239.374 159.164 304 132.848 304 132.848" stroke="#8F98ED" stroke-width="3" stroke-linecap="round"/>
</g>
<defs>
<filter id="filter0_d_13_737" x="-6" y="-2" width="337.874" height="204.926" filterUnits="userSpaceOnUse" color-interpolation-filters="sRGB">
<feFlood flood-opacity="0" result="BackgroundImageFix"/>
<feColorMatrix in="SourceAlpha" type="matrix" values="0 0 0 0 0 0 0 0 0 0 0 0 0 0 0 0 0 0 127 0" result="hardAlpha"/>
<feOffset dy="4"/>
<feGaussianBlur stdDeviation="3"/>
<feComposite in2="hardAlpha" operator="out"/>
<feColorMatrix type="matrix" values="0 0 0 0 0.0352941 0 0 0 0 0.0588235 0 0 0 0 0.113725 0 0 0 0.05 0"/>
<feBlend mode="normal" in2="BackgroundImageFix" result="effect1_dropShadow_13_737"/>
<feBlend mode="normal" in="SourceGraphic" in2="effect1_dropShadow_13_737" result="shape"/>
</filter>
<filter id="filter1_d_13_737" x="21.3195" y="76.1123" width="354.471" height="135.415" filterUnits="userSpaceOnUse" color-interpolation-filters="sRGB">
<feFlood flood-opacity="0" result="BackgroundImageFix"/>
<feColorMatrix in="SourceAlpha" type="matrix" values="0 0 0 0 0 0 0 0 0 0 0 0 0 0 0 0 0 0 127 0" result="hardAlpha"/>
<feOffset dy="0.682402"/>
<feGaussianBlur stdDeviation="1.3648"/>
<feComposite in2="hardAlpha" operator="out"/>
<feColorMatrix type="matrix" values="0 0 0 0 0.254902 0 0 0 0 0.286275 0 0 0 0 0.329412 0 0 0 0.05 0"/>
<feBlend mode="normal" in2="BackgroundImageFix" result="effect1_dropShadow_13_737"/>
<feBlend mode="normal" in="SourceGraphic" in2="effect1_dropShadow_13_737" result="shape"/>
</filter>
<filter id="filter2_d_13_737" x="234.779" y="20.5918" width="148.504" height="33.8247" filterUnits="userSpaceOnUse" color-interpolation-filters="sRGB">
<feFlood flood-opacity="0" result="BackgroundImageFix"/>
<feColorMatrix in="SourceAlpha" type="matrix" values="0 0 0 0 0 0 0 0 0 0 0 0 0 0 0 0 0 0 127 0" result="hardAlpha"/>
<feOffset dy="1.0524"/>
<feGaussianBlur stdDeviation="1.0524"/>
<feComposite in2="hardAlpha" operator="out"/>
<feColorMatrix type="matrix" values="0 0 0 0 0.254902 0 0 0 0 0.286275 0 0 0 0 0.329412 0 0 0 0.05 0"/>
<feBlend mode="normal" in2="BackgroundImageFix" result="effect1_dropShadow_13_737"/>
<feBlend mode="normal" in="SourceGraphic" in2="effect1_dropShadow_13_737" result="shape"/>
</filter>
<filter id="filter3_d_13_737" x="226.883" y="15.6442" width="164.294" height="49.6151" filterUnits="userSpaceOnUse" color-interpolation-filters="sRGB">
<feFlood flood-opacity="0" result="BackgroundImageFix"/>
<feColorMatrix in="SourceAlpha" type="matrix" values="0 0 0 0 0 0 0 0 0 0 0 0 0 0 0 0 0 0 127 0" result="hardAlpha"/>
<feOffset dy="4"/>
<feGaussianBlur stdDeviation="5"/>
<feComposite in2="hardAlpha" operator="out"/>
<feColorMatrix type="matrix" values="0 0 0 0 0.078875 0 0 0 0 0.0770833 0 0 0 0 0.166667 0 0 0 0.04 0"/>
<feBlend mode="normal" in2="BackgroundImageFix" result="effect1_dropShadow_13_737"/>
<feBlend mode="normal" in="SourceGraphic" in2="effect1_dropShadow_13_737" result="shape"/>
</filter>
<clipPath id="clip0_13_737">
<rect width="392" height="232.074" rx="12" fill="white"/>
</clipPath>
</defs>
</svg>
