<svg width="176" height="42" viewBox="0 0 176 42" fill="none" xmlns="http://www.w3.org/2000/svg">
<path d="M40.3703 22.918V18.7168L40.2565 10.6604C40.2565 10.4677 40.4096 10.3143 40.6018 10.3143H46.9463C47.1386 10.3143 47.2916 10.4677 47.2916 10.6604L47.1778 18.7168V22.7646C47.1778 24.5387 48.1784 25.5772 49.5987 25.5772C51.4075 25.5772 53.3301 23.9565 53.3301 19.3304V18.7128L53.2516 10.6565C53.2516 10.4637 53.4046 10.3103 53.5969 10.3103H59.9807C60.1729 10.3103 60.3259 10.4637 60.3259 10.6565L60.2122 20.0621L60.2514 29.8178C60.2514 30.0106 60.0984 30.164 59.9061 30.164H53.9069C53.6754 30.164 53.5616 30.0499 53.5616 29.8178L53.6754 27.7369C52.2511 29.7038 49.9832 30.6282 47.4054 30.6282C42.9835 30.6282 40.3664 27.6228 40.3664 22.918H40.3703Z" fill="#161F51"/>
<path d="M76.3618 10.6605C76.3618 10.4284 76.4403 10.3143 76.6678 10.3143H82.9731C83.1654 10.3143 83.3184 10.4678 83.3184 10.6605L83.2046 20.2982L83.3184 29.8219C83.3184 30.0146 83.1654 30.168 82.9731 30.168H76.8209C76.5894 30.168 76.4756 30.054 76.4756 29.8219L76.5541 27.9337C75.169 29.5898 73.2072 30.5575 70.7078 30.5575C65.0931 30.5575 62.0955 26.0848 62.0955 20.3022C62.0955 14.5195 65.5561 9.93277 71.0178 9.93277C73.3249 9.93277 75.1337 10.7431 76.4403 12.2458L76.3618 10.6644V10.6605ZM76.5933 20.3376C76.6325 16.3684 75.3613 14.4763 72.9404 14.4763C70.4803 14.4369 69.1345 16.2504 69.1345 20.1448C69.1345 24.0392 70.5195 26.0809 72.8658 26.0455C75.2122 26.0455 76.558 24.232 76.5972 20.3376H76.5933Z" fill="#161F51"/>
<path d="M92.433 29.8218C92.433 30.0145 92.28 30.168 92.0877 30.168H85.704C85.5117 30.168 85.3587 30.0145 85.3587 29.8218L85.4725 20.3768V10.6604C85.4725 10.4677 85.6255 10.3143 85.8178 10.3143H91.7778C92.0093 10.3143 92.1231 10.4283 92.1231 10.6604L92.0093 12.7021C93.3551 10.8139 95.7014 9.85008 98.2792 9.85008C102.701 9.85008 105.318 12.8201 105.318 17.3675V21.7222L105.432 29.8179C105.432 30.0106 105.279 30.164 105.087 30.164H98.7422C98.55 30.164 98.397 30.0106 98.397 29.8179L98.5107 21.7222V17.8671C98.5107 15.9395 97.471 14.8617 96.0506 14.8617C94.0142 14.8617 92.3192 17.0607 92.3192 21.1478V21.7261L92.433 29.8218Z" fill="#161F51"/>
<path d="M115.892 5.68425L115.853 10.3103H120.197C120.389 10.3103 120.542 10.4638 120.542 10.6565V14.783C120.542 14.9758 120.389 15.1292 120.197 15.1292H115.853L115.892 23.5357C115.892 25.2704 116.775 25.6953 117.815 25.6953C118.855 25.6953 119.506 25.5025 120.122 25.3491C120.354 25.2704 120.507 25.4278 120.507 25.656V29.3576C120.507 29.5504 120.428 29.7038 120.236 29.7825C118.929 30.2466 117.505 30.5928 116.12 30.5928C112.353 30.5928 108.967 28.7046 108.967 23.8858L109.046 15.1331H106.778C106.586 15.1331 106.433 14.9797 106.433 14.787V10.6605C106.433 10.4677 106.586 10.3143 106.778 10.3143H109.006L108.967 5.68818C108.967 5.49543 109.12 5.34201 109.313 5.34201H115.543C115.736 5.34201 115.889 5.49543 115.889 5.68818L115.892 5.68425Z" fill="#161F51"/>
<path d="M122.198 22.918V18.7168L122.084 10.6604C122.084 10.4677 122.237 10.3143 122.429 10.3143H128.774C128.966 10.3143 129.119 10.4677 129.119 10.6604L129.005 18.7168V22.7646C129.005 24.5387 130.006 25.5772 131.426 25.5772C133.235 25.5772 135.157 23.9565 135.157 19.3304V18.7128L135.079 10.6565C135.079 10.4637 135.232 10.3103 135.424 10.3103H141.808C142 10.3103 142.153 10.4637 142.153 10.6565L142.04 20.0621L142.079 29.8178C142.079 30.0106 141.926 30.164 141.734 30.164H135.734C135.503 30.164 135.389 30.0499 135.389 29.8178L135.503 27.7369C134.078 29.7038 131.811 30.6282 129.233 30.6282C124.811 30.6282 122.194 27.6228 122.194 22.918H122.198Z" fill="#161F51"/>
<path d="M174.645 29.8219C174.645 30.0146 174.492 30.168 174.3 30.168H167.955C167.763 30.168 167.61 30.0146 167.61 29.8219L167.724 22.3792V17.8672C167.724 15.8255 166.994 14.8618 165.801 14.8618C164.263 14.8618 162.956 16.9427 162.878 20.8765V22.3792L162.992 29.8219C162.992 30.0146 162.839 30.168 162.647 30.168H156.302C156.11 30.168 155.957 30.0146 155.957 29.8219L156.071 22.3792V17.8672C156.071 15.8255 155.341 14.8618 154.148 14.8618C152.571 14.8618 151.186 16.9821 151.186 21.1479V22.3831L151.299 29.8258C151.299 30.0186 151.146 30.172 150.954 30.172H144.57C144.378 30.172 144.225 30.0186 144.225 29.8258L144.339 21.5767L144.3 10.6645C144.3 10.4717 144.453 10.3183 144.645 10.3183H150.644C150.876 10.3183 150.989 10.4324 150.989 10.6645L150.876 12.7061C152.221 10.6999 154.297 9.8541 156.722 9.8541C159.374 9.8541 161.222 10.8965 162.144 12.9775C163.569 10.6251 165.605 9.8541 167.991 9.8541C172.22 9.8541 174.527 12.592 174.527 17.3715V22.3831L174.641 29.8258L174.645 29.8219Z" fill="#161F51"/>
<path d="M18.9394 0C8.47898 0 0 8.50086 0 18.9883C0 29.4757 8.47898 37.9765 18.9394 37.9765C29.3998 37.9765 37.8788 29.4757 37.8788 18.9883C37.8788 8.50086 29.3998 0 18.9394 0ZM9.87972 18.9883C9.87972 13.9727 13.9368 9.90521 18.9394 9.90521C23.942 9.90521 27.9991 13.9727 27.9991 18.9883C27.9991 24.0038 23.942 28.0713 18.9394 28.0713C13.9368 28.0713 9.87972 24.0038 9.87972 18.9883ZM28.7289 33.7556C26.1 33.7556 23.9695 31.6196 23.9695 28.984C23.9695 26.3483 26.1 24.2123 28.7289 24.2123C31.3577 24.2123 33.4882 26.3483 33.4882 28.984C33.4882 31.6196 31.3577 33.7556 28.7289 33.7556Z" fill="url(#paint0_angular_1_4)"/>
<path d="M36.0103 41.1265C38.6887 41.1265 40.8599 38.9497 40.8599 36.2644C40.8599 33.5791 38.6887 31.4023 36.0103 31.4023C33.332 31.4023 31.1607 33.5791 31.1607 36.2644C31.1607 38.9497 33.332 41.1265 36.0103 41.1265Z" fill="url(#paint1_linear_1_4)"/>
<path d="M120.411 35.2855C120.386 35.0363 120.28 34.8428 120.092 34.7049C119.905 34.567 119.651 34.498 119.33 34.498C119.111 34.498 118.927 34.5289 118.777 34.5906C118.627 34.6503 118.511 34.7337 118.431 34.8408C118.353 34.9478 118.314 35.0693 118.314 35.2052C118.31 35.3184 118.333 35.4172 118.385 35.5016C118.438 35.586 118.511 35.6591 118.604 35.7209C118.697 35.7806 118.804 35.8331 118.925 35.8784C119.047 35.9216 119.176 35.9587 119.314 35.9895L119.882 36.1254C120.158 36.1872 120.412 36.2695 120.642 36.3725C120.873 36.4754 121.072 36.602 121.241 36.7523C121.41 36.9026 121.541 37.0796 121.633 37.2834C121.728 37.4873 121.776 37.7209 121.779 37.9844C121.776 38.3715 121.678 38.707 121.482 38.9911C121.289 39.2732 121.009 39.4924 120.642 39.6489C120.278 39.8033 119.838 39.8805 119.324 39.8805C118.813 39.8805 118.368 39.8023 117.989 39.6458C117.613 39.4894 117.318 39.2577 117.106 38.951C116.896 38.6422 116.786 38.2603 116.776 37.8053H118.07C118.084 38.0174 118.145 38.1944 118.252 38.3365C118.361 38.4765 118.506 38.5825 118.687 38.6545C118.871 38.7245 119.078 38.7595 119.308 38.7595C119.535 38.7595 119.731 38.7266 119.898 38.6607C120.067 38.5948 120.197 38.5032 120.29 38.3859C120.383 38.2685 120.429 38.1337 120.429 37.9813C120.429 37.8393 120.387 37.7199 120.302 37.6231C120.22 37.5264 120.099 37.444 119.938 37.3761C119.78 37.3081 119.585 37.2464 119.354 37.1908L118.666 37.0179C118.133 36.8882 117.712 36.6854 117.403 36.4095C117.094 36.1336 116.941 35.762 116.943 35.2947C116.941 34.9118 117.042 34.5773 117.248 34.2911C117.456 34.0049 117.741 33.7816 118.104 33.621C118.466 33.4604 118.878 33.3801 119.339 33.3801C119.808 33.3801 120.218 33.4604 120.568 33.621C120.92 33.7816 121.194 34.0049 121.389 34.2911C121.585 34.5773 121.686 34.9087 121.692 35.2855H120.411ZM124.916 33.4666H126.414L127.856 36.1903H127.918L129.36 33.4666H130.858L128.551 37.5552V39.791H127.223V37.5552L124.916 33.4666ZM137.628 35.2855C137.603 35.0363 137.497 34.8428 137.31 34.7049C137.122 34.567 136.868 34.498 136.547 34.498C136.329 34.498 136.144 34.5289 135.994 34.5906C135.844 34.6503 135.728 34.7337 135.648 34.8408C135.57 34.9478 135.531 35.0693 135.531 35.2052C135.527 35.3184 135.55 35.4172 135.602 35.5016C135.655 35.586 135.728 35.6591 135.821 35.7209C135.914 35.7806 136.021 35.8331 136.142 35.8784C136.264 35.9216 136.393 35.9587 136.531 35.9895L137.1 36.1254C137.375 36.1872 137.629 36.2695 137.859 36.3725C138.09 36.4754 138.289 36.602 138.458 36.7523C138.627 36.9026 138.758 37.0796 138.85 37.2834C138.945 37.4873 138.994 37.7209 138.996 37.9844C138.994 38.3715 138.895 38.707 138.699 38.9911C138.506 39.2732 138.226 39.4924 137.859 39.6489C137.495 39.8033 137.055 39.8805 136.541 39.8805C136.03 39.8805 135.585 39.8023 135.207 39.6458C134.83 39.4894 134.535 39.2577 134.323 38.951C134.113 38.6422 134.003 38.2603 133.993 37.8053H135.287C135.301 38.0174 135.362 38.1944 135.469 38.3365C135.578 38.4765 135.723 38.5825 135.904 38.6545C136.088 38.7245 136.295 38.7595 136.525 38.7595C136.752 38.7595 136.948 38.7266 137.115 38.6607C137.284 38.5948 137.415 38.5032 137.507 38.3859C137.6 38.2685 137.646 38.1337 137.646 37.9813C137.646 37.8393 137.604 37.7199 137.52 37.6231C137.437 37.5264 137.316 37.444 137.155 37.3761C136.997 37.3081 136.802 37.2464 136.571 37.1908L135.883 37.0179C135.35 36.8882 134.929 36.6854 134.62 36.4095C134.311 36.1336 134.158 35.762 134.16 35.2947C134.158 34.9118 134.26 34.5773 134.465 34.2911C134.673 34.0049 134.958 33.7816 135.321 33.621C135.683 33.4604 136.095 33.3801 136.556 33.3801C137.025 33.3801 137.435 33.4604 137.785 33.621C138.137 33.7816 138.411 34.0049 138.607 34.2911C138.802 34.5773 138.903 34.9087 138.909 35.2855H137.628ZM142.263 34.569V33.4666H147.457V34.569H145.521V39.791H144.199V34.569H142.263ZM150.921 39.791V33.4666H155.183V34.569H152.258V36.076H154.964V37.1784H152.258V38.6885H155.195V39.791H150.921ZM158.855 33.4666H160.504L162.245 37.7158H162.32L164.061 33.4666H165.71V39.791H164.413V35.6746H164.361L162.724 39.7601H161.841L160.204 35.6591H160.152V39.791H158.855V33.4666ZM172.852 35.2855C172.827 35.0363 172.721 34.8428 172.534 34.7049C172.346 34.567 172.092 34.498 171.771 34.498C171.553 34.498 171.368 34.5289 171.218 34.5906C171.068 34.6503 170.952 34.7337 170.872 34.8408C170.794 34.9478 170.755 35.0693 170.755 35.2052C170.751 35.3184 170.774 35.4172 170.826 35.5016C170.879 35.586 170.952 35.6591 171.045 35.7209C171.138 35.7806 171.245 35.8331 171.366 35.8784C171.488 35.9216 171.617 35.9587 171.755 35.9895L172.324 36.1254C172.599 36.1872 172.853 36.2695 173.083 36.3725C173.314 36.4754 173.513 36.602 173.682 36.7523C173.851 36.9026 173.982 37.0796 174.074 37.2834C174.169 37.4873 174.218 37.7209 174.22 37.9844C174.218 38.3715 174.119 38.707 173.923 38.9911C173.73 39.2732 173.45 39.4924 173.083 39.6489C172.719 39.8033 172.279 39.8805 171.765 39.8805C171.254 39.8805 170.809 39.8023 170.431 39.6458C170.054 39.4894 169.759 39.2577 169.547 38.951C169.337 38.6422 169.227 38.2603 169.217 37.8053H170.511C170.525 38.0174 170.586 38.1944 170.693 38.3365C170.802 38.4765 170.947 38.5825 171.128 38.6545C171.312 38.7245 171.519 38.7595 171.749 38.7595C171.976 38.7595 172.172 38.7266 172.339 38.6607C172.508 38.5948 172.639 38.5032 172.731 38.3859C172.824 38.2685 172.87 38.1337 172.87 37.9813C172.87 37.8393 172.828 37.7199 172.744 37.6231C172.661 37.5264 172.54 37.444 172.379 37.3761C172.221 37.3081 172.026 37.2464 171.795 37.1908L171.107 37.0179C170.574 36.8882 170.153 36.6854 169.844 36.4095C169.535 36.1336 169.382 35.762 169.384 35.2947C169.382 34.9118 169.484 34.5773 169.689 34.2911C169.897 34.0049 170.182 33.7816 170.545 33.621C170.907 33.4604 171.319 33.3801 171.78 33.3801C172.249 33.3801 172.659 33.4604 173.009 33.621C173.361 33.7816 173.635 34.0049 173.831 34.2911C174.026 34.5773 174.127 34.9087 174.133 35.2855H172.852Z" fill="#676888"/>
<defs>
<radialGradient id="paint0_angular_1_4" cx="0" cy="0" r="1" gradientUnits="userSpaceOnUse" gradientTransform="translate(18.9394 18.9883) rotate(-140.392) scale(16.9015 16.858)">
<stop stop-color="#FC9700"/>
<stop offset="0.206597" stop-color="#591CF7"/>
<stop offset="0.399305" stop-color="#00B5F3"/>
<stop offset="0.60243" stop-color="#00E0CD"/>
<stop offset="0.78993" stop-color="#70EE5D"/>
<stop offset="1" stop-color="#FC9700"/>
</radialGradient>
<linearGradient id="paint1_linear_1_4" x1="39.4944" y1="32.8516" x2="32.7308" y2="39.3736" gradientUnits="userSpaceOnUse">
<stop stop-color="#01BDEB"/>
<stop offset="1" stop-color="#01DAD2"/>
</linearGradient>
</defs>
</svg>
